<?xml version="1.0"?>
<svg version="1.1" xmlns="http://www.w3.org/2000/svg" width="51px" height="36px" style=""><path fill="#ffdb6e" d="M20.015625,20.98046875l0.02734375,0l-0.02734375-0.02734375l0,0.02734375q0,0.013671875,0.013671875,0.02734375t0.013671875,0.02734375q0,0.123046875-0.4375,0.341796875q0.02734375-0.02734375,0.109375-0.02734375q0.095703125,0,0.1708984375,0.08203125t0.0751953125,0.1640625q0,0.13671875-0.109375,0.177734375q-0.259765625,0.19140625-0.30078125,0.3828125q0.08203125-0.08203125,0.2734375-0.08203125q0.109375,0,0.109375,0.08203125q0,0.0546875-0.02734375,0.08203125q-0.013671875,0.041015625-0.1845703125,0.1572265625t-0.1708984375,0.1572265625q0.0546875,0.1640625,0.0546875,0.21875q0,0.205078125-0.1708984375,0.341796875t-0.4169921875,0.13671875l-0.095703125,0q-0.02734375,0-0.068359375-0.013671875t-0.068359375-0.013671875q-0.08203125,0-0.2734375,0.02734375t-0.287109375,0.02734375l-0.08203125,0l-0.08203125,0q-0.041015625,0-0.369140625,0.109375l-0.0546875,0q-0.13671875,0-0.13671875-0.13671875q0-0.02734375,0.0546875-0.08203125q-0.013671875,0-0.041015625-0.013671875t-0.041015625-0.013671875q-0.0546875,0-0.177734375,0.041015625t-0.1640625,0.041015625q-0.068359375,0-0.1708984375-0.02734375t-0.1572265625-0.02734375l-0.1640625,0.0546875q-0.1640625,0.08203125-0.259765625,0.08203125q-0.08203125,0-0.109375-0.0546875q-0.02734375-0.02734375-0.02734375-0.08203125t0.095703125-0.109375t0.095703125-0.08203125l0-0.02734375q-0.02734375-0.02734375-0.109375-0.287109375q-0.013671875-0.013671875-0.0751953125-0.068359375t-0.0615234375-0.095703125q0-0.02734375,0.08203125-0.109375q0.19140625-0.150390625,0.19140625-0.287109375q0-0.0546875-0.02734375-0.1572265625t-0.02734375-0.1708984375q-0.0546875,0.02734375-0.109375,0.02734375q-0.109375,0-0.109375-0.109375q0-0.205078125,0.1640625-0.287109375q0-0.02734375-0.0546875-0.2119140625t-0.0546875-0.2666015625q0-0.314453125-0.1640625-0.587890625q-0.109375,0.0546875-0.205078125,0.0546875q-0.13671875,0-0.13671875-0.08203125l0.0546875-0.109375q-0.1640625-0.02734375-0.1640625-0.109375q0-0.068359375,0.1162109375-0.21875t0.1025390625-0.177734375q-0.08203125,0.08203125-0.21875,0.08203125t-0.13671875-0.109375l0-0.02734375q0-0.08203125,0.1025390625-0.205078125t0.0888671875-0.1640625q-0.041015625-0.095703125-0.177734375-0.21875t-0.1640625-0.1640625q-0.109375-0.109375-0.19140625-0.232421875q-0.02734375-0.02734375-0.08203125-0.02734375q-0.041015625,0-0.1162109375,0.02734375t-0.1162109375,0.02734375q-0.08203125,0-0.109375-0.02734375t-0.041015625-0.0888671875t-0.0205078125-0.095703125t-0.0478515625-0.0341796875q-0.08203125,0-0.1982421875-0.0478515625t-0.1708984375-0.0615234375q-0.46484375,0-0.916015625-0.13671875q-0.02734375,0.013671875-0.1708984375,0.0888671875t-0.205078125,0.1435546875t-0.0751953125,0.150390625q0.0546875,0.1640625,0.0546875,0.341796875q0,0.13671875-0.02734375,0.19140625q-0.02734375,0.08203125-0.02734375,0.341796875q0,0.21875-0.0546875,0.328125q-0.02734375,0.0546875-0.02734375,0.259765625q0,0.341796875,0.0546875,0.615234375q0.0546875,0.4921875,0.0546875,0.779296875q0,0.19140625-0.013671875,0.546875t-0.013671875,0.51953125q0.08203125,0.4921875,0.08203125,0.560546875q0,0.02734375-0.013671875,0.08203125t-0.013671875,0.08203125q0.08203125,0.205078125,0.08203125,0.451171875q0,0.068359375-0.013671875,0.2119140625t-0.013671875,0.2119140625q0,0.041015625,0.013671875,0.1435546875t0.013671875,0.1572265625q0,0.314453125-0.08203125,0.560546875q0.02734375,0.02734375,0.02734375,0.13671875q0,0.041015625-0.013671875,0.1572265625t-0.013671875,0.1572265625q0,0.013671875-0.013671875,0.08203125t-0.013671875,0.08203125l0.02734375,0.0546875q0.02734375,0,0.08203125,0.08203125l0.02734375,0.068359375q0,0.0546875-0.13671875,0.19140625l0,0.1640625l0,0.396484375l0,0.1640625q-0.02734375,0.08203125-0.02734375,0.232421875q0,0.08203125,0.013671875,0.2666015625t0.013671875,0.2802734375l0,0.123046875q0.0546875-0.02734375,0.1640625-0.02734375q0.314453125,0,0.314453125,0.19140625q0,0.123046875-0.1640625,0.24609375q-0.02734375,0.02734375-0.095703125,0.0751953125t-0.109375,0.0751953125t-0.08203125,0.08203125t-0.0546875,0.109375l0,0.13671875q0,0.109375-0.02734375,0.1640625q0,0.02734375-0.013671875,0.1025390625t-0.013671875,0.1025390625q0,0.0546875,0.0546875,0.0546875q0.13671875,0.041015625,0.13671875,0.19140625l0,0.0546875q-0.013671875,0.068359375-0.068359375,0.1708984375t-0.068359375,0.1708984375q0.013671875,0.068359375,0.068359375,0.13671875t0.068359375,0.109375q0.02734375,0.02734375,0.02734375,0.123046875q0,0.109375-0.109375,0.2734375l0,0.287109375l0,0.1640625q0,0.21875,0.0546875,0.2734375q0.041015625,0.068359375,0.0751953125,0.2529296875t0.0888671875,0.287109375t0.177734375,0.1025390625q0.08203125,0,0.13671875-0.02734375t0.109375-0.02734375q0.068359375,0,0.1640625,0.1025390625t0.205078125,0.1025390625q0.041015625,0,0.533203125,0.08203125l0.08203125,0q0.0546875,0,0.19140625-0.013671875t0.205078125-0.013671875q0.109375,0,0.1640625,0.02734375q0.232421875-0.177734375,0.505859375-0.177734375q0.0546875,0,0.19140625,0.068359375q0.0546875,0.041015625,0.1845703125,0.0751953125t0.1982421875,0.1025390625t0.068359375,0.232421875q0.0546875,0.1640625,0.0546875,0.669921875q0.02734375,0.109375,0.02734375,0.314453125q0,0.341796875-0.109375,0.779296875q0.02734375-0.02734375,0.08203125-0.02734375q0.095703125,0,0.1572265625,0.08203125t0.0615234375,0.177734375q0,0.13671875-0.13671875,0.13671875l-0.0546875,0l-0.08203125,0q-0.02734375,0-0.041015625,0.0068359375t-0.0205078125,0.0205078125l-0.02734375,0.0546875t-0.0478515625,0.08203125q0,0.013671875-0.0751953125,0.0888671875t-0.0751953125,0.0888671875q0.041015625-0.013671875,0.068359375-0.041015625q-0.615234375,0.232421875-0.84765625,0.232421875l-0.13671875,0q-0.177734375,0-0.232421875-0.0546875q-0.109375,0.0546875-0.1640625,0.0546875q-0.013671875,0-0.0546875-0.013671875t-0.0546875-0.013671875q-0.0546875,0.02734375-0.109375,0.02734375t-0.150390625-0.041015625t-0.13671875-0.041015625q-0.02734375,0.02734375-0.0546875,0.02734375q-0.0546875,0-0.1435546875,0.02734375t-0.1572265625,0.02734375l-0.0546875,0q-0.02734375,0-0.095703125-0.02734375t-0.109375-0.02734375q-0.0546875,0.08203125-0.21875,0.13671875q-0.13671875,0-0.13671875-0.1640625l-0.150390625,0q-0.328125,0-0.41015625,0.02734375q-0.0546875,0.02734375-0.177734375,0.02734375l-0.24609375,0l-0.109375,0q-0.08203125,0.0546875-0.259765625,0.0546875q-0.1640625,0-0.4375-0.0546875q-0.041015625,0.013671875-0.1708984375,0.041015625t-0.1708984375,0.041015625l-0.08203125,0q-0.0546875,0-0.1640625-0.0546875q-0.0546875,0.0546875-0.177734375,0.0546875q-0.0546875,0-0.1982421875,0.013671875t-0.2119140625,0.013671875q-0.232421875,0-0.314453125-0.08203125l-0.08203125,0q-0.08203125,0-0.232421875-0.02734375t-0.21875-0.02734375q-0.08203125,0-0.30078125-0.0546875q-0.013671875,0-0.095703125,0.041015625t-0.13671875,0.041015625t-0.109375-0.0546875q-0.123046875,0.08203125-0.423828125,0.08203125q-0.287109375,0-0.35546875-0.109375q-0.21875,0.1640625-0.396484375,0.1640625q-0.068359375,0-0.13671875-0.02734375t-0.08203125-0.02734375q-0.068359375,0-0.123046875,0.02734375l-0.0546875,0q-0.02734375,0-0.0888671875-0.02734375t-0.1025390625-0.02734375q-0.02734375,0.02734375-0.13671875,0.02734375q-0.205078125,0-0.314453125-0.0546875q-0.109375,0.0546875-0.35546875,0.0546875q-0.177734375,0-0.287109375-0.02734375q-0.0546875,0.02734375-0.1640625,0.02734375l-0.287109375,0l-0.13671875,0q-0.328125,0.08203125-0.478515625,0.08203125q-0.423828125,0-0.560546875-0.24609375q-0.13671875-0.232421875-0.13671875-0.84765625q0-0.2734375,0.02734375-0.35546875q-0.0546875,0.02734375-0.109375,0.02734375t-0.0546875-0.068359375t0.08203125-0.232421875l0.08203125-0.150390625q0-0.4921875,0.109375-0.642578125q-0.0546875-0.109375-0.0546875-0.177734375q0-0.1640625,0.1708984375-0.2734375t0.3896484375-0.109375q0.232421875,0,0.369140625,0.13671875q0.02734375-0.013671875,0.177734375-0.123046875t0.24609375-0.095703125q0.109375,0,0.109375,0.13671875l0.0546875,0q0.0546875,0,0.08203125,0.02734375l0.08203125,0q0.068359375,0,0.2255859375-0.02734375t0.2255859375-0.02734375l0.0546875,0q0.08203125,0.013671875,0.2119140625-0.08203125t0.1845703125-0.095703125q0.068359375,0,0.109375,0.041015625q0.013671875-0.013671875,0.0751953125-0.0546875t0.0888671875-0.041015625q0.205078125-0.259765625,0.396484375-0.35546875q0-0.19140625,0.08203125-0.314453125q0.109375-0.150390625,0.109375-0.35546875q0-0.109375-0.02734375-0.341796875t-0.02734375-0.341796875q0-0.13671875,0.02734375-0.21875l0-0.2734375l0-0.123046875l-0.109375-0.3828125q0.013671875-0.068359375,0.0478515625-0.109375t0.0341796875-0.095703125l0-0.21875q-0.08203125-0.24609375-0.08203125-0.697265625q0-0.35546875,0.08203125-0.560546875q0-0.02734375,0.013671875-0.068359375t0.013671875-0.068359375q0-0.068359375-0.02734375-0.2119140625t-0.02734375-0.2119140625l0-0.08203125q-0.02734375-0.0546875-0.02734375-0.232421875q0-0.24609375,0.0546875-0.46484375l-0.0546875,0.02734375q-0.13671875,0-0.13671875-0.232421875q0-0.08203125,0.02734375-0.109375q0.02734375-0.041015625,0.0888671875-0.123046875t0.095703125-0.150390625t0.0341796875-0.123046875q0-0.041015625-0.013671875-0.1298828125t-0.013671875-0.1162109375l0-0.13671875q0-0.177734375-0.0546875-0.177734375q-0.13671875-0.041015625-0.13671875-0.1640625l0-0.02734375q0-0.02734375,0.068359375-0.0888671875t0.068359375-0.0751953125l0-0.232421875q-0.02734375-0.0546875-0.02734375-0.328125q0-0.177734375,0.02734375-0.232421875q-0.109375-0.21875-0.109375-0.24609375t0.0546875-0.08203125q0-0.02734375,0.0546875-0.0546875l0.0546875-0.02734375q0.08203125-0.205078125,0.08203125-0.396484375q0-0.08203125-0.013671875-0.24609375t-0.013671875-0.232421875q-0.02734375-0.13671875-0.02734375-0.423828125l0-0.109375l0-0.2734375q0-0.013671875-0.0615234375-0.0615234375t-0.0751953125-0.0751953125l0-0.068359375q0-0.123046875,0.19140625-0.24609375q0-0.13671875,0.02734375-0.19140625q-0.08203125-0.08203125-0.08203125-0.314453125l0-0.0546875q-0.02734375-0.068359375-0.0546875-0.21875t-0.02734375-0.177734375l0-0.1640625q0-0.109375-0.02734375-0.1640625q-0.13671875-0.041015625-0.13671875-0.1640625l0-0.02734375q0.013671875-0.0546875,0.068359375-0.1162109375t0.068359375-0.1162109375l0-0.30078125q0-0.205078125,0.0546875-0.478515625q-0.0546875,0.02734375-0.314453125,0.02734375q-0.041015625,0-0.1708984375,0.013671875t-0.1845703125,0.013671875l-0.08203125,0q-0.13671875,0.02734375-0.24609375,0.08203125t-0.2255859375,0.1435546875t-0.1982421875,0.1298828125q-0.615234375,0.341796875-0.95703125,0.341796875q0.041015625,0.205078125-0.259765625,0.423828125q-0.21875,0.109375-0.369140625,0.51953125t-0.177734375,0.451171875q-0.013671875,0.08203125-0.095703125,0.4306640625t-0.08203125,0.5537109375l0,0.109375q0.0546875-0.02734375,0.109375-0.02734375q0.068359375,0,0.068359375,0.0546875t-0.0546875,0.1435546875t-0.109375,0.1572265625l-0.041015625,0.068359375q0.041015625,0.19140625,0.08203125,0.24609375q0.02734375,0.02734375,0.02734375,0.095703125q0,0.0546875-0.08203125,0.13671875q-0.0546875,0.041015625-0.0751953125,0.1025390625t-0.0205078125,0.1572265625t-0.013671875,0.13671875q-0.013671875,0.068359375-0.0205078125,0.1162109375t-0.02734375,0.0888671875t-0.0341796875,0.0546875t-0.0615234375,0.0546875t-0.0751953125,0.068359375q-0.205078125,0.205078125-0.451171875,0.205078125q-0.08203125,0-0.232421875-0.0341796875t-0.21875-0.0341796875q-0.041015625-0.013671875-0.259765625-0.0546875t-0.24609375-0.0546875q-0.02734375,0-0.095703125,0.013671875t-0.095703125,0.013671875q-0.13671875,0-0.13671875-0.08203125q-0.1640625,0.08203125-0.205078125,0.08203125q-0.08203125,0-0.109375-0.0546875q-0.02734375-0.02734375-0.13671875-0.02734375l-0.1640625,0q-0.068359375,0.013671875-0.21875,0.08203125t-0.232421875,0.08203125q-0.287109375,0-0.287109375-0.21875l0-0.0546875q0.068359375-0.24609375,0.123046875-0.369140625l0-0.08203125q0-0.109375,0.02734375-0.13671875q-0.0546875-0.08203125-0.0546875-0.533203125l0-0.369140625q-0.041015625-0.1640625-0.041015625-0.3828125q0-0.287109375-0.02734375-0.396484375q-0.08203125,0.0546875-0.1640625,0.0546875t-0.08203125-0.109375q0-0.232421875,0.19140625-0.423828125l0-0.24609375q0-0.259765625,0.0546875-0.369140625q0.013671875-0.0546875,0.02734375-0.177734375t0.02734375-0.232421875t0.041015625-0.177734375q0-0.0546875-0.013671875-0.21875t-0.013671875-0.232421875l0-0.109375l0-0.19140625l0-0.341796875q0-0.451171875,0.08203125-0.642578125q-0.123046875-0.615234375-0.150390625-0.888671875q-0.08203125,0.08203125-0.1640625,0.08203125q-0.109375,0-0.109375-0.13671875q0-0.08203125,0.08203125-0.205078125q0.150390625-0.150390625,0.21875-0.35546875l0-0.232421875l0-0.02734375l0-0.08203125q0-0.1640625,0.1845703125-0.2666015625t0.4033203125-0.1025390625q0.02734375,0,0.0888671875,0.013671875t0.0888671875,0.013671875q0.095703125-0.013671875,0.533203125-0.0615234375t0.669921875-0.0478515625l0.21875,0q0.4921875,0.0546875,0.724609375,0.0546875q0.35546875,0,0.68359375-0.109375q0.02734375-0.02734375,0.109375-0.02734375t0.2392578125,0.0546875t0.2392578125,0.0546875q0.123046875,0.013671875,0.341796875,0.0546875t0.30078125,0.0546875l0.19140625,0q0.123046875,0,0.1640625,0.041015625q0.08203125-0.041015625,0.177734375-0.041015625l0.0546875,0q0.1640625-0.0546875,0.35546875-0.0546875q0.08203125-0.08203125,0.287109375-0.08203125l0.0546875,0q0.08203125,0.02734375,0.24609375,0.02734375l0.314453125,0l0.13671875,0q0.068359375,0,0.314453125,0.08203125q0.068359375,0,0.205078125,0.0341796875t0.205078125,0.0341796875q0.08203125,0,0.232421875-0.095703125q0.109375-0.109375,0.328125-0.109375q0.095703125,0,0.095703125,0.0546875q0,0.02734375-0.041015625,0.109375q0.02734375-0.02734375,0.123046875-0.02734375q0.041015625,0,0.13671875,0.013671875t0.13671875,0.013671875l0.08203125,0q0.0546875-0.02734375,0.177734375-0.02734375q0.150390625,0,0.35546875,0.068359375q0.068359375-0.068359375,0.205078125-0.068359375l0.21875,0l0.109375,0l0.109375,0l0.259765625,0q0.314453125,0,0.505859375-0.0546875q0.068359375-0.013671875,0.205078125-0.095703125t0.232421875-0.068359375q0.232421875,0,0.505859375,0.13671875l0.109375,0l0.205078125,0l0.109375,0q0.177734375,0,0.396484375,0.0546875q0.109375-0.0546875,0.30078125-0.0546875l0.08203125,0q0.02734375,0.02734375,0.109375,0.02734375q0.041015625,0,0.123046875-0.041015625t0.13671875-0.041015625q0.013671875,0,0.041015625,0.013671875t0.041015625,0.013671875q0.0546875,0.02734375,0.1640625,0.02734375q0.0546875,0,0.177734375-0.013671875t0.19140625-0.013671875q0.068359375,0.013671875,0.109375,0.0615234375t0.08203125,0.0478515625q0.0546875,0,0.109375-0.02734375q0.1640625-0.109375,0.314453125-0.109375q0.109375,0,0.1640625,0.0546875l0.177734375,0l0.2734375,0q0.205078125,0,0.314453125-0.02734375q0.1640625-0.0546875,0.2734375-0.0546875q0.177734375,0,0.505859375,0.08203125q0.08203125-0.02734375,0.24609375-0.02734375q0.109375,0,0.328125,0.02734375t0.314453125,0.02734375q0.109375-0.0546875,0.205078125-0.0546875q0.13671875,0,0.30078125,0.0546875q0.1640625-0.0546875,0.287109375-0.0546875q0.041015625,0,0.779296875,0.08203125q0.341796875,0,0.341796875,0.68359375q0,0.1640625-0.02734375,0.21875l0,0.451171875l0,0.21875q0.02734375,0.08203125,0.02734375,0.423828125l0,0.24609375q0,0.205078125-0.02734375,0.287109375q-0.0546875,0.13671875-0.0546875,0.560546875q0.0546875-0.02734375,0.13671875-0.02734375q0.109375,0,0.109375,0.109375q0,0.150390625-0.13671875,0.24609375q-0.109375,0.109375-0.109375,0.205078125l0,0.109375q0,0.08203125-0.02734375,0.1640625l0.0546875,0q0.13671875,0,0.13671875,0.109375l0,0.02734375q-0.041015625,0.13671875-0.1640625,0.177734375l0,0.1640625q0.08203125,0.205078125,0.08203125,0.505859375q0.02734375,0.0546875,0.02734375,0.21875q0,0.123046875-0.041015625,0.396484375t-0.041015625,0.3828125l0.2734375-0.13671875q0.08203125,0,0.109375,0.0546875z M17.25390625,22.443359375q0.259765625-0.150390625,1.1484375-0.669921875q0.0546875-0.02734375,0.1435546875-0.0751953125t0.1298828125-0.068359375t0.1025390625-0.0546875t0.08203125-0.0751953125t0.0546875-0.0888671875t0.0341796875-0.1162109375l0-0.1640625q-0.013671875,0.041015625-0.1162109375,0.0888671875t-0.2392578125,0.095703125t-0.1640625,0.0615234375q-0.150390625,0.068359375-0.4169921875,0.232421875t-0.3212890625,0.19140625l-0.150390625,0.0751953125t-0.2119140625,0.109375t-0.1640625,0.123046875t-0.0615234375,0.1298828125q0.02734375,0.02734375,0.02734375,0.123046875l0,0.0546875q0,0.02734375,0.02734375,0.02734375l0.095703125,0z M19.017578125,20.365234375l-0.02734375,0.02734375l0.02734375-0.02734375q-0.123046875,0.24609375-0.7109375,0.765625q0.02734375-0.013671875,0.123046875-0.068359375t0.205078125-0.095703125t0.177734375-0.041015625q0.095703125,0,0.13671875,0.109375q0.068359375-0.41015625,0.068359375-0.51953125l0-0.150390625z M19.017578125,19.83203125l0,0.02734375l0-0.02734375q0-0.013671875-0.4580078125,0.30078125t-0.5810546875,0.41015625q0.751953125-0.560546875,0.943359375-0.560546875q0.068359375,0,0.123046875,0.0546875l0-0.0546875q0-0.013671875-0.0068359375-0.013671875t-0.0068359375-0.0068359375t-0.0068359375-0.041015625t-0.0068359375-0.0888671875z M16.37890625,19.421875l0.02734375-0.02734375l-0.02734375,0.02734375q0.02734375-0.013671875,0.109375-0.0751953125t0.109375-0.0751953125q-0.013671875,0.013671875-0.068359375,0.0341796875t-0.1025390625,0.0478515625t-0.0478515625,0.068359375z M16.4609375,18.779296875l0.177734375-0.150390625q-0.068359375,0-0.177734375,0.150390625q1.1484375-0.68359375,2.4609375-1.326171875q0.150390625-0.08203125,0.150390625-0.478515625q0-0.423828125-0.0546875-0.642578125q-0.123046875,0.123046875-0.6220703125,0.560546875t-0.7177734375,0.642578125t-0.5810546875,0.5673828125t-0.6357421875,0.6767578125z M18.94921875,18.41015625l-0.02734375,0l0.02734375,0z M18.94921875,19.298828125l0,0.041015625l0-0.041015625q0-0.02734375-0.02734375-0.0546875q-0.13671875,0.109375-0.4169921875,0.341796875t-0.4169921875,0.341796875l0.150390625-0.0751953125t0.1845703125-0.0888671875t0.1708984375-0.095703125t0.1708984375-0.1162109375t0.1162109375-0.1162109375t0.068359375-0.13671875z M18.115234375,15.8671875l0.02734375,0.02734375l-0.02734375-0.02734375q-0.08203125,0.013671875-0.1640625,0.0205078125t-0.123046875,0.013671875t-0.1025390625,0.0341796875t-0.1435546875,0.095703125q-0.232421875,0.232421875-0.669921875,0.615234375q-1.134765625,0.90234375-1.572265625,1.33984375q0.068359375,0.02734375,0.095703125,0.068359375q0,0.013671875,0.013671875,0.013671875q0.041015625,0,0.123046875-0.0546875l0.24609375-0.1640625q0.08203125-0.0546875,0.2392578125-0.1845703125t0.2392578125-0.1845703125q0.095703125-0.068359375,0.4716796875-0.3349609375t0.5947265625-0.3896484375q0.888671875-0.669921875,1.4765625-0.916015625q-0.041015625-0.041015625-0.109375-0.041015625t-0.2392578125,0.0478515625t-0.2392578125,0.0478515625q-0.08203125,0-0.13671875-0.02734375z M15.3671875,15.89453125l0.02734375,0l-0.02734375,0q-0.08203125-0.02734375-0.19140625-0.02734375q-0.08203125,0-0.13671875,0.0546875q-0.041015625,0.041015625-0.1298828125,0.109375t-0.1298828125,0.109375q-0.109375,0.068359375-0.3349609375,0.2255859375t-0.3349609375,0.2255859375q-0.57421875,0.396484375-1.626953125,1.0390625q0.0546875-0.02734375,0.150390625-0.02734375q0.109375,0,0.13671875,0.02734375q0.08203125-0.08203125,0.1640625-0.123046875q0.013671875,0,0.041015625-0.013671875t0.041015625-0.013671875q0.02734375,0,0.1025390625,0.02734375t0.1025390625,0.02734375l0.0546875-0.02734375q0.109375-0.0546875,0.19140625-0.0546875q0.19140625,0,0.259765625,0.109375q0.109375-0.02734375,0.328125-0.19140625q0.123046875-0.08203125,2.26953125-1.53125l-0.08203125,0q-0.041015625,0-0.1572265625,0.013671875t-0.1572265625,0.013671875q-0.109375,0-0.1640625-0.02734375l-0.0546875,0q-0.0546875,0-0.1708984375,0.02734375t-0.1708984375,0.02734375z M10.69140625,26.83203125l0.369140625-0.21875q0-0.013671875-0.13671875,0.068359375t-0.232421875,0.150390625q0.19140625-0.109375,0.546875-0.3212890625t0.546875-0.3212890625q0.0546875-0.02734375,0.177734375-0.08203125t0.1708984375-0.0888671875t0.095703125-0.1162109375t0.0341796875-0.19140625q-0.177734375,0.21875-0.4443359375,0.4033203125t-0.6083984375,0.3896484375t-0.51953125,0.328125z M12.318359375,30.755859375q0.013671875,0.02734375-0.1435546875,0.150390625t-0.396484375,0.287109375t-0.46484375,0.3076171875t-0.4375,0.2802734375t-0.2392578125,0.150390625q-0.765625,0.533203125-2.939453125,1.955078125q0.451171875-0.1640625,0.90234375-0.423828125t1.06640625-0.669921875t0.833984375-0.546875q0.875-0.587890625,1.490234375-1.06640625q0.02734375-0.013671875,0.0751953125-0.0478515625t0.068359375-0.041015625t0.0546875-0.0341796875t0.0478515625-0.041015625t0.0341796875-0.041015625t0.02734375-0.0478515625t0.013671875-0.0478515625t0.0068359375-0.068359375l0-0.0546875z M12.263671875,29.470703125l-0.314453125,0.1640625q0,0.013671875,0.08203125-0.0205078125t0.1572265625-0.08203125t0.0751953125-0.0615234375q-0.533203125,0.30078125-1.1005859375,0.669921875t-1.271484375,0.84765625t-1.0732421875,0.724609375q0.943359375-0.533203125,2.1875-1.353515625q0.013671875-0.013671875,0.4033203125-0.205078125t0.615234375-0.3623046875t0.2392578125-0.3212890625z M12.236328125,28.267578125l-0.08203125,0.02734375l0.08203125-0.02734375q-0.08203125,0.0546875-0.2529296875,0.1640625t-0.2529296875,0.1640625q0.02734375-0.013671875,0.1845703125-0.068359375t0.2392578125-0.1162109375t0.08203125-0.1435546875z M12.208984375,28.69140625l-0.259765625,0.1640625q0.259765625-0.13671875,0.259765625-0.1640625q-0.314453125,0.19140625-3.021484375,1.845703125q-0.02734375,0.013671875-0.615234375,0.4375q-0.35546875,0.177734375-0.423828125,0.314453125q-0.02734375,0.068359375-0.123046875,0.19140625t-0.095703125,0.232421875q0.02734375,0.150390625-0.259765625,0.4375q0.4921875-0.328125,1.4560546875-0.9775390625t1.4560546875-0.9775390625q0.21875-0.13671875,0.65625-0.4169921875t0.65625-0.4169921875t0.2802734375-0.1982421875t0.0615234375-0.1982421875q0-0.041015625-0.013671875-0.1298828125t-0.013671875-0.1435546875z M8.2578125,30.427734375q0.46484375-0.396484375,1.3740234375-1.1689453125t1.3740234375-1.1552734375q-0.9296875,0.6015625-2.3515625,1.4765625q-0.02734375,0.02734375-0.1298828125,0.0888671875t-0.1845703125,0.1162109375t-0.08203125,0.109375q0.02734375,0.0546875,0.02734375,0.24609375q0,0.205078125-0.02734375,0.287109375z M8.2578125,29.333984375l0,0.0546875q2.4609375-1.9140625,3.759765625-2.994140625q-1.66796875,0.9296875-2.419921875,1.39453125q-0.287109375,0.1640625-0.7861328125,0.4716796875t-0.5810546875,0.3623046875q0,0.109375,0.013671875,0.3486328125t0.013671875,0.3623046875z M9.830078125,23.140625l-0.232421875,0.1640625q0,0.013671875,0.095703125-0.0478515625t0.1845703125-0.13671875t0.0888671875-0.0888671875q-0.02734375,0.02734375-0.13671875,0.109375q-0.669921875,0.533203125-1.203125,0.875q-0.041015625,0.02734375-0.1435546875,0.0888671875t-0.1435546875,0.1025390625t-0.0888671875,0.1025390625t-0.0478515625,0.1435546875q0,0.095703125,0.02734375,0.150390625q1.244140625-1.09375,3.609375-2.830078125q-0.65625,0.35546875-2.009765625,1.3671875z M12.236328125,21.828125l-0.19140625,0.13671875q0.19140625-0.109375,0.19140625-0.13671875q-1.6953125,1.23046875-2.43359375,1.818359375q-0.150390625,0.123046875-0.5263671875,0.4169921875t-0.5673828125,0.4716796875q-0.041015625,0.02734375-0.1162109375,0.0888671875t-0.1162109375,0.1025390625l-0.095703125,0.095703125t-0.0751953125,0.1162109375t-0.0205078125,0.1298828125q0.451171875-0.259765625,1.3330078125-0.779296875t1.3330078125-0.779296875q0.041015625-0.013671875,0.232421875-0.1025390625t0.341796875-0.1640625t0.328125-0.177734375t0.287109375-0.2119140625t0.123046875-0.19140625q-0.0546875-0.21875-0.0546875-0.533203125q0-0.21875,0.02734375-0.30078125z M8.39453125,25.30078125l0.177734375-0.08203125q-0.068359375,0.02734375-0.177734375,0.08203125q-0.13671875,0.109375-0.13671875,0.30078125l0,0.13671875q0.73828125-0.65625,1.544921875-1.2578125q-1.052734375,0.62890625-1.408203125,0.8203125z M8.203125,27.54296875l0.13671875-0.095703125l-0.13671875,0.095703125q0.24609375-0.177734375,0.8203125-0.57421875t0.998046875-0.7041015625t0.79296875-0.6083984375q0.177734375-0.123046875,0.505859375-0.3896484375t0.4921875-0.3896484375q0.041015625-0.041015625,0.19140625-0.1572265625t0.24609375-0.21875t0.095703125-0.1845703125q-1.39453125,1.0390625-2.802734375,1.900390625q-0.7109375,0.4375-1.23046875,0.642578125q-0.13671875,0.02734375-0.13671875,0.396484375q0,0.068359375,0.013671875,0.1640625t0.013671875,0.123046875z M12.318359375,24.822265625q-0.642578125,0.505859375-0.779296875,0.615234375q0.328125-0.1640625,0.560546875-0.1640625l0.0546875,0q0.13671875-0.0546875,0.13671875-0.259765625q0-0.13671875,0.02734375-0.19140625z M11.4296875,25.970703125l-0.177734375,0.109375q0.123046875-0.0546875,0.177734375-0.109375q-0.19140625,0.109375-0.5537109375,0.3349609375t-0.5400390625,0.3349609375q0.4921875-0.24609375,1.09375-0.669921875z M10.4453125,25.328125l0.1640625-0.109375l-0.587890625,0.3828125q0.109375-0.08203125,0.423828125-0.2734375q1.052734375-0.697265625,1.900390625-1.353515625l0-0.4375q0-0.314453125-0.02734375-0.451171875q-1.12109375,0.697265625-2.830078125,1.982421875q-0.19140625,0.13671875-0.5400390625,0.4375t-0.4580078125,0.3828125q-0.08203125,0.068359375-0.1298828125,0.123046875t-0.0751953125,0.095703125t-0.041015625,0.1025390625t-0.0205078125,0.095703125t-0.013671875,0.13671875t-0.0068359375,0.1708984375q0.861328125-0.328125,2.2421875-1.28515625z M12.208984375,20.119140625l0-0.02734375l0,0.02734375q-0.02734375-0.0546875-0.02734375-0.13671875q-0.1640625,0.109375-0.4716796875,0.3349609375t-0.4580078125,0.3349609375q0.46484375-0.232421875,0.615234375-0.232421875l0.08203125,0q0.177734375,0.041015625,0.177734375,0.205078125q0,0.08203125-0.0546875,0.19140625q-0.13671875,0.24609375-0.396484375,0.5126953125t-0.4169921875,0.4033203125t-0.560546875,0.4443359375t-0.4716796875,0.3486328125q0.123046875-0.08203125,0.4375-0.328125t0.5126953125-0.3896484375t0.4921875-0.287109375t0.5400390625-0.1708984375q0.0546875-0.21875,0.0546875-0.369140625q0-0.123046875-0.02734375-0.3759765625t-0.02734375-0.3759765625l0-0.109375z M8.3671875,19.052734375l0.123046875-0.0546875q-0.041015625,0-0.123046875,0.0546875q-0.19140625,0.08203125-0.19140625,0.109375q0.205078125-0.095703125,0.5673828125-0.3076171875t0.4990234375-0.2802734375q-0.587890625,0.314453125-0.875,0.478515625z M14.24609375,15.89453125l-0.1640625,0.08203125q0-0.013671875,0.1640625-0.08203125q-0.396484375,0.1640625-0.779296875,0.3759765625t-0.8134765625,0.4853515625t-0.7041015625,0.4580078125t-0.779296875,0.5400390625t-0.697265625,0.4921875q-1.1484375,0.73828125-1.791015625,1.203125q-0.0546875,0.02734375-0.1708984375,0.1025390625t-0.1640625,0.109375t-0.095703125,0.109375t-0.0478515625,0.1572265625q0,0.109375,0.02734375,0.19140625q1.0390625-0.861328125,3.2880859375-2.1943359375t3.2060546875-2.0849609375q-0.328125,0.08203125-0.35546875,0.08203125q-0.095703125,0-0.123046875-0.02734375z M9.37890625,19.859375l0.314453125-0.1640625l-0.314453125,0.1640625q0.2734375-0.1640625,0.84765625-0.46484375l0.861328125-0.451171875q0.02734375-0.013671875,0.3486328125-0.1845703125t0.5537109375-0.328125t0.21875-0.2392578125q-0.546875,0.2734375-1.53125,0.8818359375t-1.298828125,0.7861328125z M10.25390625,19.955078125l-0.02734375,0.02734375l0.02734375-0.02734375q-0.150390625,0.095703125-0.7314453125,0.4716796875t-0.8681640625,0.6083984375q0.779296875-0.4375,1.599609375-1.080078125z M12.044921875,18.68359375q-0.150390625,0.109375-0.46484375,0.341796875t-0.46484375,0.341796875q0.57421875-0.396484375,0.90234375-0.533203125q0.205078125-0.13671875,0.21875-0.177734375l0-0.13671875q-0.109375,0.109375-0.19140625,0.1640625z M11.5390625,18.24609375l0.1640625-0.123046875q-0.08203125,0.068359375-0.1640625,0.123046875q0.068359375-0.041015625,0.2255859375-0.123046875t0.2802734375-0.1640625t0.19140625-0.1640625q-0.13671875,0.08203125-0.3828125,0.24609375t-0.314453125,0.205078125z M12.345703125,17.740234375l0-0.02734375l0.02734375,0l-0.02734375,0.02734375l0.0546875-0.0546875z M8.33984375,20.81640625q0.08203125-0.041015625,0.08203125-0.0546875q-0.08203125,0.02734375-0.08203125,0.0546875q0.396484375-0.205078125,0.984375-0.615234375q-0.02734375,0.013671875-0.1640625,0.0751953125t-0.259765625,0.123046875t-0.259765625,0.13671875t-0.21875,0.150390625t-0.08203125,0.1298828125z M9.54296875,20.92578125l-0.30078125,0.232421875q-0.02734375,0,0.451171875-0.314453125q-0.041015625,0.02734375-0.150390625,0.08203125q-0.806640625,0.478515625-0.916015625,0.8203125q0,0.02734375,0.02734375,0.02734375q0.08203125,0,0.2529296875-0.0751953125t0.1708984375-0.1025390625q0.6015625-0.328125,1.873046875-1.3671875q0.13671875-0.095703125,0.4033203125-0.2939453125t0.4033203125-0.2939453125q0.02734375-0.013671875,0.177734375-0.095703125t0.2119140625-0.150390625t0.0615234375-0.150390625q-0.24609375,0.1640625-1.216796875,0.7451171875t-1.44921875,0.9365234375z M11.89453125,15.921875q-0.08203125,0-0.08203125,0.0546875q0.02734375,0,0.08203125-0.0546875q-0.095703125,0.013671875-0.177734375,0.0546875t-0.1162109375,0.0615234375t-0.13671875,0.1162109375t-0.1298828125,0.123046875q0.24609375-0.177734375,0.560546875-0.35546875z M1.544921875,22.046875l0.02734375-0.02734375l-0.02734375,0.02734375q0-0.013671875,0.2255859375-0.21875t0.478515625-0.4306640625t0.2939453125-0.2666015625q0.205078125-0.177734375,0.587890625-0.5263671875t0.587890625-0.5126953125q-0.861328125,0.4921875-1.708984375,1.17578125q-0.150390625,0.109375-0.24609375,0.109375q-0.109375,0-0.109375-0.1640625q0-0.19140625,0.08203125-0.314453125q0.123046875-0.177734375,0.3076171875-0.369140625t0.2939453125-0.287109375t0.3828125-0.3076171875t0.328125-0.2666015625q0.205078125-0.123046875,0.560546875-0.3828125t0.396484375-0.287109375q0.0546875-0.041015625,0.287109375-0.177734375t0.4033203125-0.259765625t0.1982421875-0.205078125q-2.296875,1.39453125-3.47265625,2.091796875q0,0.0546875,0.0478515625,0.3349609375t0.0478515625,0.4306640625l0,0.109375q0.0546875,0.2734375,0.0546875,0.533203125q0,0.13671875-0.02734375,0.19140625z M4.7578125,16.0859375l-0.13671875,0.08203125l0.1640625-0.109375l-0.02734375,0.02734375q-0.423828125,0.2734375-1.421875,0.861328125t-1.517578125,0.9296875q1.1484375-0.615234375,3.3359375-2.009765625l-0.02734375,0q-0.041015625,0-0.369140625,0.21875z M3.6640625,17.09765625l-0.505859375,0.30078125l0.505859375-0.30078125q-0.943359375,0.587890625-1.791015625,1.025390625l-0.123046875,0.0615234375t-0.109375,0.068359375t-0.0478515625,0.068359375t-0.0478515625,0.1162109375q0,0.095703125,0.013671875,0.30078125t0.013671875,0.287109375q0.875-0.779296875,2.5703125-2.21484375q-0.19140625,0.095703125-0.478515625,0.287109375z M1.421875,20.173828125l0.095703125-0.0546875q-0.095703125,0.02734375-0.095703125,0.0546875q0.0546875-0.041015625,0.4033203125-0.259765625t0.5537109375-0.328125q-0.02734375,0.013671875-0.177734375,0.0751953125t-0.2392578125,0.1025390625t-0.21875,0.109375t-0.2119140625,0.1435546875t-0.109375,0.1572265625z M1.572265625,17.1796875q0.123046875-0.21875,0.3896484375-0.6357421875t0.3896484375-0.6220703125q-0.109375,0.02734375-0.4990234375,0.24609375t-0.4033203125,0.287109375q0.123046875,0.369140625,0.123046875,0.642578125l0,0.08203125z M5.578125,17.931640625q0.0546875,0,0.08203125-0.0546875q-0.013671875,0.013671875-0.041015625,0.02734375t-0.041015625,0.02734375z M8.654296875,16.33203125l-0.287109375,0.177734375q0.232421875-0.150390625,0.287109375-0.177734375q-1.244140625,0.765625-2.4609375,1.517578125q1.244140625-0.724609375,2.4609375-1.517578125z M8.517578125,17.234375q0,0.013671875,0.041015625-0.013671875t0.08203125-0.068359375l0.041015625-0.02734375q-0.0546875,0.02734375-0.1640625,0.109375q0,0.013671875,0.0615234375-0.0205078125t0.1298828125-0.08203125t0.08203125-0.0615234375q0.423828125-0.232421875,0.724609375-0.423828125q0.232421875-0.109375,0.6494140625-0.35546875t0.4990234375-0.287109375q-0.02734375,0.02734375-0.109375,0.02734375l-0.109375,0q-0.0546875,0-0.109375,0.02734375q-0.095703125,0.068359375-0.2939453125,0.1982421875t-0.2939453125,0.1982421875q-0.642578125,0.369140625-1.23046875,0.779296875z M8.12109375,15.94921875q-0.095703125-0.013671875-0.259765625,0.0888671875t-0.35546875,0.2666015625t-0.259765625,0.205078125q-0.177734375,0.123046875-0.533203125,0.3759765625t-0.546875,0.3759765625q1.681640625-0.984375,2.201171875-1.2578125q-0.041015625,0-0.123046875-0.02734375t-0.123046875-0.02734375z M7.560546875,15.83984375l-0.24609375,0.109375l0.24609375-0.109375q-0.21875,0.095703125-0.423828125,0.1982421875t-0.4443359375,0.232421875t-0.4033203125,0.21875t-0.4375,0.259765625t-0.3896484375,0.24609375t-0.423828125,0.2802734375t-0.3828125,0.2529296875t-0.423828125,0.2802734375l-0.3896484375,0.259765625q2.21484375-1.271484375,3.7734375-2.228515625l-0.0546875,0z M3.71875,20.474609375l0,0.041015625l0-0.041015625q-0.478515625,0.396484375-0.560546875,0.451171875q-0.123046875,0.109375-0.3759765625,0.3349609375t-0.3759765625,0.3349609375q-0.013671875,0.013671875-0.2734375,0.232421875t-0.4169921875,0.4033203125t-0.1435546875,0.2939453125q0.287109375,0.02734375,0.5673828125-0.0888671875t0.6767578125-0.3828125t0.51953125-0.3349609375q0.21875-0.123046875,0.21875-0.287109375q0-0.205078125,0.0546875-0.369140625l0-0.08203125q0-0.341796875,0.109375-0.505859375z M4.224609375,19.162109375q0,0.02734375-0.560546875,0.396484375q-0.369140625,0.259765625-0.587890625,0.451171875q-0.587890625,0.423828125-0.943359375,0.833984375q0.9296875-0.724609375,1.53125-1.01171875q0.041015625-0.02734375,0.1025390625-0.0478515625t0.1025390625-0.041015625t0.08203125-0.0546875t0.0546875-0.0751953125l0-0.02734375q0-0.259765625,0.21875-0.423828125z M8.2578125,18.041015625l0.02734375-0.02734375l-0.02734375,0.02734375l0,0.150390625q2.064453125-1.326171875,3.021484375-2.21484375q-0.287109375,0.1640625-0.875,0.4921875t-0.888671875,0.505859375q-0.19140625,0.095703125-0.5537109375,0.314453125t-0.5400390625,0.314453125q-0.02734375,0.02734375-0.109375,0.0751953125t-0.109375,0.0615234375q0.0546875,0.19140625,0.0546875,0.2734375l0,0.02734375z M6.015625,15.9765625l-0.02734375,0l0.02734375,0q-0.0546875,0.02734375-0.13671875,0.02734375q-0.041015625,0-0.109375-0.02734375t-0.109375-0.02734375q-0.095703125,0-0.150390625,0.0546875q-0.095703125,0.08203125-0.2939453125,0.2392578125t-0.2939453125,0.2392578125q-0.6015625,0.560546875-1.052734375,0.888671875q-0.123046875,0.095703125-0.8544921875,0.7314453125t-1.1142578125,0.9775390625q3.28125-2.296875,4.908203125-3.185546875q-0.013671875,0-0.150390625,0.041015625t-0.1640625,0.041015625l-0.1640625,0l-0.314453125,0z M2.994140625,15.83984375q-0.02734375,0-0.02734375,0.02734375q0.02734375,0,0.02734375-0.02734375q-0.013671875,0-0.0478515625,0.013671875t-0.0615234375,0.013671875l-0.109375,0q-0.08203125,0-0.13671875,0.08203125q-0.0546875,0.095703125-0.1708984375,0.2802734375t-0.1708984375,0.2802734375q-0.095703125,0.150390625-0.2802734375,0.4580078125t-0.2802734375,0.4580078125q0.68359375-0.328125,2.666015625-1.55859375q-0.068359375-0.013671875-0.232421875,0.0341796875t-0.21875,0.0478515625q-0.08203125,0-0.109375-0.02734375q-0.0546875-0.02734375-0.205078125-0.02734375q-0.0546875,0-0.1708984375,0.013671875t-0.1845703125,0.013671875q-0.1640625,0-0.287109375-0.08203125z M8.17578125,18.833984375q0-0.013671875,0.24609375-0.1435546875t0.5263671875-0.2734375t0.3212890625-0.1708984375q1.052734375-0.57421875,1.544921875-0.875q0.08203125-0.041015625,0.4375-0.2529296875t0.4990234375-0.30078125t0.4169921875-0.2734375t0.478515625-0.341796875t0.396484375-0.3349609375q-0.068359375-0.013671875-0.1640625,0.0068359375t-0.13671875,0.0205078125q-0.109375,0-0.1640625-0.0546875q-0.21875,0.041015625-0.68359375,0.3828125q-0.68359375,0.451171875-1.61328125,1.09375q-0.7109375,0.51953125-1.435546875,0.984375q-0.0546875,0.041015625-0.1845703125,0.1162109375t-0.1982421875,0.123046875t-0.150390625,0.1298828125t-0.13671875,0.1640625z M8.33984375,22.416015625l0-0.02734375l0,0.02734375q0-0.02734375,0.587890625-0.423828125q-0.1640625,0.0546875-0.21875,0.0546875q-0.314453125,0-0.314453125-0.2734375q0-0.19140625,0.150390625-0.341796875q-0.041015625,0.013671875-0.08203125,0.0205078125t-0.0615234375,0.0068359375l-0.041015625,0t-0.0341796875,0.0068359375t-0.02734375,0.0205078125t-0.0205078125,0.041015625t-0.0205078125,0.068359375q0,0.02734375,0.013671875,0.13671875t0.013671875,0.150390625q0.0546875,0.21875,0.0546875,0.423828125l0,0.109375z M8.17578125,23.701171875q0-0.08203125,1.517578125-1.09375q0.669921875-0.505859375,1.3125-1.06640625q0.0546875-0.0546875,0.2119140625-0.1845703125t0.2529296875-0.2119140625t0.205078125-0.2119140625t0.1640625-0.2529296875q-0.19140625,0.041015625-0.916015625,0.478515625q-0.505859375,0.314453125-1.517578125,0.998046875q-0.9296875,0.57421875-1.1484375,0.875q-0.02734375,0.08203125-0.041015625,0.1982421875t-0.0205078125,0.259765625t-0.0205078125,0.2119140625z M8.203125,28.185546875l0,0.08203125q0.21875-0.150390625,0.62890625-0.451171875t0.62890625-0.451171875q-0.150390625,0.068359375-0.5263671875,0.2529296875t-0.5947265625,0.2802734375q-0.13671875,0.068359375-0.13671875,0.1640625l0,0.123046875z M6.658203125,32.21875q-0.109375,0.150390625-0.3349609375,0.2734375t-0.3076171875,0.21875q-0.478515625,0.4921875-0.998046875,0.95703125q0.41015625-0.123046875,0.7998046875-0.3349609375t0.970703125-0.5947265625t0.7177734375-0.46484375q-0.02734375,0.02734375-0.109375,0.02734375q-0.068359375,0-0.1845703125-0.0615234375t-0.1845703125-0.0478515625q-0.0546875,0.0546875-0.19140625,0.0546875q-0.123046875,0-0.177734375-0.02734375z M6.015625,33.88671875l0.0546875-0.02734375l-0.0546875,0.02734375q0.287109375-0.150390625,1.203125-0.779296875q-0.259765625,0.13671875-0.751953125,0.4375t-0.751953125,0.4375q0.0546875,0,0.150390625-0.0478515625t0.150390625-0.0478515625z M4.78515625,33.50390625q0.123046875-0.109375,0.3623046875-0.3349609375t0.3623046875-0.3349609375q-0.3828125,0.232421875-0.669921875,0.3828125q-0.0546875,0.02734375-0.0546875,0.150390625l0,0.109375l0,0.02734375z M5.017578125,33.955078125l0.02734375,0l-0.0546875,0l0.02734375,0l0.109375,0q0.123046875,0,0.30078125-0.177734375l-0.615234375,0.205078125l0.02734375,0q0.02734375,0,0.0888671875-0.013671875t0.0888671875-0.013671875z M7.08203125,34.009765625q0.041015625,0,0.1298828125-0.068359375t0.205078125-0.1708984375t0.1435546875-0.1298828125q0.533203125-0.314453125,0.806640625-0.533203125q0.287109375-0.177734375,0.84765625-0.533203125t0.833984375-0.533203125q0.109375-0.08203125,0.7724609375-0.5400390625t0.9912109375-0.7177734375q0.478515625-0.35546875,0.478515625-0.423828125l0-0.41015625q-0.109375,0.02734375-0.2734375,0.13671875q0.08203125,0.041015625,0.08203125,0.08203125q0,0.123046875-0.30078125,0.3076171875t-0.4375,0.2255859375q-0.24609375,0.13671875-0.7314453125,0.4169921875t-0.7177734375,0.4169921875q-0.65625,0.3828125-1.7978515625,1.2373046875t-1.6474609375,1.1826171875q0.1640625,0.0546875,0.314453125,0.0546875l0.21875,0l0.08203125,0z M8.708984375,33.88671875q0.02734375,0,0.095703125-0.0478515625t0.068359375-0.0615234375q-0.02734375,0.02734375-0.1640625,0.109375q0.123046875,0.041015625,0.21875,0.041015625q0.21875,0,0.478515625-0.1298828125t0.4306640625-0.259765625t0.451171875-0.3759765625t0.3486328125-0.30078125q0.1640625-0.109375,1.3125-0.984375q0.013671875-0.013671875,0.177734375-0.1162109375t0.2666015625-0.19140625t0.0888671875-0.1435546875q-0.2734375,0.109375-0.73828125,0.4853515625t-0.62890625,0.4716796875q-0.833984375,0.57421875-2.40625,1.50390625z M10.814453125,34.037109375q0.041015625-0.013671875,0.095703125-0.0546875t0.1025390625-0.068359375t0.1025390625-0.02734375l0.13671875,0.068359375q0.068359375-0.068359375,0.2119140625-0.2255859375t0.2119140625-0.2255859375q0.21875-0.21875,0.62890625-0.669921875t0.62890625-0.68359375q-0.08203125-0.013671875-0.205078125,0.0205078125t-0.19140625,0.0751953125t-0.21875,0.13671875t-0.1640625,0.109375q-0.451171875,0.24609375-0.79296875,0.478515625q-1.271484375,0.779296875-1.640625,1.01171875q0.02734375,0.013671875,0.46484375,0.08203125l0.095703125,0l0.21875-0.0546875l0.0546875,0q0.02734375,0,0.08203125,0.02734375t0.08203125,0.02734375q0.013671875,0,0.0478515625-0.013671875t0.0478515625-0.013671875z M13.439453125,33.88671875l-0.02734375,0l0.02734375,0l0.13671875,0q0.08203125,0,0.177734375-0.1640625q0.013671875-0.013671875,0.1162109375-0.1435546875t0.1572265625-0.2119140625q0.6015625-0.779296875,0.615234375-0.79296875q-0.3828125,0.24609375-1.1826171875,0.7109375t-1.1962890625,0.697265625q0.041015625-0.013671875,0.2119140625-0.0546875t0.2666015625-0.041015625l0.08203125,0q0.0546875,0,0.1162109375,0.0205078125t0.1025390625,0.0205078125l0.095703125,0q0.041015625-0.041015625,0.21875-0.041015625l0.08203125,0z M15.490234375,33.61328125l0.02734375,0l0-0.02734375l-0.02734375,0.02734375l0.02734375,0.0546875q0,0.041015625-0.0341796875,0.1162109375t-0.0341796875,0.1025390625q0.041015625-0.013671875,0.0751953125-0.0341796875t0.0478515625-0.0615234375t0.0205078125-0.068359375t0.0205078125-0.095703125t0.013671875-0.095703125q-0.02734375,0.013671875-0.068359375,0.041015625t-0.068359375,0.041015625z M14.109375,34.65234375l0.02734375,0l-0.02734375,0l-0.08203125,0.0546875l0.19140625-0.109375q-0.02734375,0-0.109375,0.0546875z M15.517578125,32.4375l0.02734375,0l-0.02734375,0q-0.41015625-0.041015625-0.7109375,0.369140625q-0.068359375,0.08203125-0.3828125,0.4990234375t-0.478515625,0.6494140625q0.109375,0.02734375,0.24609375-0.041015625t0.30078125-0.1845703125t0.232421875-0.1435546875q0.369140625-0.2734375,0.697265625-0.423828125q0.0546875-0.02734375,0.123046875-0.0546875t0.08203125-0.0478515625t0.0341796875-0.0615234375t0.0205078125-0.13671875q-0.02734375-0.109375-0.02734375-0.423828125l-0.13671875,0z M13.890625,32.328125l-0.0546875,0q-0.341796875,0-0.505859375-0.109375q-0.177734375,0.041015625-0.560546875,0.4921875q-0.02734375,0.02734375-0.341796875,0.35546875t-0.5673828125,0.615234375t-0.2119140625,0.328125q0.46484375-0.232421875,2.720703125-1.572265625q-0.0546875-0.041015625-0.13671875-0.0615234375t-0.19140625-0.02734375t-0.150390625-0.0205078125z M11.45703125,32.57421875q0.1640625-0.08203125,0.451171875-0.2529296875t0.4375-0.2529296875q0.041015625-0.02734375,0.0751953125-0.0478515625t0.0546875-0.0341796875t0.0478515625-0.02734375t0.0341796875-0.0205078125t0.013671875-0.02734375t0.0068359375-0.0341796875l0-0.109375q-0.19140625,0.13671875-0.5673828125,0.41015625t-0.5537109375,0.396484375z M12.87890625,27.92578125l0.02734375-0.02734375q-0.02734375,0-0.02734375,0.02734375q0.013671875-0.013671875,0.0546875-0.041015625t0.0546875-0.041015625q-0.109375,0-0.109375,0.08203125z M12.072265625,28.03515625l-0.177734375,0.123046875q0.041015625-0.041015625,0.177734375-0.123046875q0.21875-0.150390625,0.21875-0.724609375q0-0.177734375-0.013671875-0.4375t-0.013671875-0.341796875q-1.927734375,1.544921875-2.748046875,2.1875q0.62890625-0.41015625,1.626953125-1.01171875q0.4375-0.314453125,0.697265625-0.369140625l0.0546875,0q0.150390625,0,0.150390625,0.13671875q0,0.095703125-0.0546875,0.150390625q-0.08203125,0.068359375-0.2529296875,0.205078125t-0.2529296875,0.205078125q-2.064453125,1.791015625-2.802734375,2.392578125q0.65625-0.369140625,1.7841796875-1.23046875t1.6064453125-1.162109375z M14.9296875,17.849609375l0.02734375,0l-0.02734375,0q0.13671875,0.02734375,0.3623046875-0.1435546875t0.4716796875-0.423828125t0.314453125-0.3076171875q0.806640625-0.65625,1.28515625-1.107421875q-0.0546875-0.02734375-0.205078125-0.02734375t-0.3212890625,0.0615234375t-0.24609375,0.095703125t-0.314453125,0.19140625t-0.2666015625,0.1708984375q-0.615234375,0.396484375-1.791015625,1.244140625q0.13671875-0.013671875,0.369140625,0.109375t0.341796875,0.13671875z M15.654296875,18.30078125q0.259765625,0.21875,0.451171875,0.505859375q0.79296875-1.025390625,2.734375-2.666015625q-0.1640625,0.068359375-0.95703125,0.6083984375t-1.50390625,1.0458984375z M16.720703125,19.982421875q-0.08203125,0-0.08203125,0.109375q0,0.095703125,0.095703125,0.30078125t0.095703125,0.232421875q0.177734375-0.13671875,0.5126953125-0.423828125t0.4990234375-0.423828125q-0.62890625,0.423828125-0.84765625,0.478515625l-0.08203125,0q-0.24609375,0-0.24609375-0.13671875q0-0.08203125,0.0546875-0.13671875z M16.884765625,20.98046875l0.0546875-0.02734375l-0.0546875,0.02734375q0.0546875-0.041015625,0.1708984375-0.123046875t0.1708984375-0.123046875q-0.013671875,0.013671875-0.1162109375,0.0615234375t-0.1640625,0.0888671875t-0.0615234375,0.095703125z M17.048828125,21.74609375l0,0.0546875q1.12109375-0.84765625,1.572265625-1.353515625q-0.21875,0.123046875-0.6357421875,0.396484375t-0.6220703125,0.396484375q-0.041015625,0.02734375-0.1162109375,0.068359375t-0.123046875,0.0615234375t-0.08203125,0.068359375t-0.0478515625,0.1025390625q0.013671875,0.02734375,0.02734375,0.1025390625t0.02734375,0.1025390625z M45.6468359375,24.712890625l0.02734375,0.02734375l-0.02734375-0.02734375l0.02734375,0.0546875q0,0.095703125-0.259765625,0.2734375q-0.13671875,0.095703125-0.13671875,0.177734375l0,0.13671875l0,0.08203125q0,0.396484375-0.13671875,0.669921875q-0.02734375,0.02734375-0.02734375,0.13671875l0,0.177734375q0,0.08203125-0.02734375,0.109375q-0.068359375,0.068359375-0.068359375,0.13671875l0,0.109375l0,0.02734375q0,0.02734375,0.013671875,0.0888671875t0.013671875,0.0888671875q0,0.314453125-0.1640625,0.888671875q-0.013671875,0.068359375-0.0546875,0.287109375t-0.1025390625,0.3623046875t-0.1708984375,0.2255859375q-0.19140625,0.369140625-0.341796875,0.46484375q0,0.095703125-0.109375,0.423828125q-0.013671875,0.08203125-0.095703125,0.24609375t-0.095703125,0.259765625q0,0.095703125-0.1025390625,0.19140625t-0.1298828125,0.150390625q-0.02734375,0.095703125-0.13671875,0.21875t-0.13671875,0.1640625q-0.095703125,0.232421875-0.341796875,0.423828125q-0.02734375,0.02734375-0.123046875,0.232421875t-0.24609375,0.2734375q-0.02734375,0.02734375-0.3828125,0.1640625q-0.109375,0.068359375-0.109375,0.13671875q0,0.013671875,0.013671875,0.068359375t0.013671875,0.08203125q0,0.0546875-0.02734375,0.109375q-0.0546875,0.13671875-0.2666015625,0.30078125t-0.2666015625,0.259765625q-0.068359375,0.123046875-0.2255859375,0.3486328125t-0.1982421875,0.2939453125q-0.546875,0.751953125-1.12109375,0.751953125q-0.08203125,0-0.24609375-0.0546875q-0.341796875-0.08203125-0.642578125-0.451171875q-0.08203125,0.0546875-0.2119140625,0.1640625t-0.1572265625,0.123046875q-0.13671875,0.328125-0.423828125,0.328125q-0.13671875,0-0.2734375-0.13671875q-0.08203125-0.08203125-0.150390625-0.08203125q-0.041015625,0-0.0751953125,0.0341796875t-0.0888671875,0.1025390625t-0.109375,0.109375q-0.205078125,0.150390625-0.341796875,0.150390625q-0.109375,0-0.1640625-0.02734375q-0.24609375,0.08203125-0.30078125,0.08203125q-0.19140625,0-0.259765625-0.13671875l-0.08203125,0q-0.041015625,0-0.123046875,0.02734375t-0.123046875,0.02734375q-0.02734375,0-0.068359375-0.013671875t-0.0546875-0.013671875q-0.02734375,0-0.1025390625,0.013671875t-0.1162109375,0.013671875t-0.109375-0.013671875t-0.109375-0.013671875q-0.150390625-0.02734375-0.5126953125,0.068359375t-0.4990234375,0.095703125q-0.109375,0-0.1640625-0.02734375t-0.177734375-0.02734375q-0.068359375,0-0.2119140625,0.02734375t-0.2255859375,0.02734375q-0.068359375,0-0.232421875-0.0546875q-0.109375,0.0546875-0.24609375,0.0546875q-0.0546875,0-0.150390625-0.013671875t-0.13671875-0.013671875q-0.068359375,0-0.205078125-0.013671875t-0.205078125-0.013671875q-0.0546875,0-0.21875-0.0546875t-0.232421875-0.0546875q-0.109375-0.02734375-0.341796875-0.02734375l-0.109375,0q-0.095703125,0-0.30078125,0.02734375t-0.314453125,0.02734375q-0.041015625,0-0.109375-0.013671875t-0.109375-0.013671875l-0.205078125,0l-0.3828125,0q-0.02734375,0.02734375-0.123046875,0.02734375q-0.08203125,0-0.13671875-0.0546875l-0.24609375,0.08203125q-0.041015625,0-0.095703125-0.02734375t-0.08203125-0.02734375l-0.02734375,0q-0.2734375,0.13671875-0.3828125,0.13671875q-0.041015625,0-0.150390625,0.013671875t-0.1640625,0.013671875q-0.08203125,0-0.19140625-0.0546875q-0.109375,0.0546875-0.1640625,0.0546875t-0.1640625-0.02734375t-0.150390625-0.02734375q-0.013671875,0-0.041015625,0.013671875t-0.041015625,0.013671875q-0.0546875,0-0.13671875-0.0205078125t-0.1640625-0.0478515625l-0.123046875-0.041015625l-0.109375,0l-0.287109375,0q-0.2734375,0-0.35546875-0.0546875q-0.205078125,0.08203125-0.451171875,0.08203125q-0.2734375,0-0.478515625-0.08203125l-0.08203125,0q-0.0546875,0-0.1845703125-0.0205078125t-0.1845703125-0.0205078125q-0.08203125,0-0.1640625,0.041015625q-0.13671875,0.13671875-0.30078125,0.13671875l-0.0546875,0q-0.041015625-0.013671875-0.08203125-0.041015625l-0.068359375-0.013671875q-0.02734375,0-0.08203125,0.0341796875t-0.109375,0.0478515625q-0.013671875,0-0.0478515625,0.013671875t-0.0615234375,0.013671875q-0.041015625,0-0.1640625-0.0341796875t-0.177734375-0.0478515625l-0.08203125,0l-0.24609375,0q-0.314453125,0-0.423828125-0.150390625q-0.1640625-0.068359375-0.1640625-0.51953125q0-0.35546875,0.08203125-0.765625q-0.0546875-0.328125-0.0546875-0.642578125l0-0.13671875q-0.0546875-0.1640625-0.0546875-0.369140625q0-0.560546875,0.35546875-0.560546875l0.232421875,0q0.21875,0,0.328125,0.0546875q0.013671875,0,0.041015625,0.013671875t0.041015625,0.013671875q0.068359375,0,0.341796875-0.13671875q0.0546875-0.02734375,0.1640625-0.02734375q0.0546875,0,0.1708984375,0.013671875t0.1708984375,0.013671875q0.109375,0,0.1640625-0.02734375q0.41015625-0.08203125,0.423828125-0.08203125q0.13671875,0,0.19140625,0.0546875q0.13671875,0.02734375,0.2255859375-0.123046875t0.150390625-0.4033203125t0.0751953125-0.2802734375q-0.109375,0.0546875-0.232421875,0.0546875q-0.1640625,0-0.1640625-0.13671875l0-0.02734375q0.02734375-0.13671875,0.369140625-0.396484375q-0.02734375-0.0546875-0.02734375-0.19140625l0-0.068359375q0-0.013671875-0.013671875-0.0546875t-0.013671875-0.0546875q0-0.041015625,0.013671875-0.123046875t0.013671875-0.123046875q0-0.068359375-0.08203125-0.109375q-0.123046875-0.041015625-0.123046875-0.123046875q0-0.041015625,0.123046875-0.150390625t0.13671875-0.123046875q0.08203125-0.328125,0.08203125-0.697265625q0-0.232421875-0.041015625-0.724609375t-0.041015625-0.73828125q0-0.314453125,0.02734375-0.478515625l-0.13671875,0.068359375q-0.150390625,0-0.150390625-0.150390625q0-0.0546875,0.0478515625-0.1162109375t0.13671875-0.1298828125t0.1025390625-0.08203125q-0.08203125-0.4921875-0.08203125-0.533203125l0-0.08203125q-0.109375-0.21875-0.109375-0.505859375q0-0.150390625,0.0546875-0.314453125q0.02734375-0.08203125,0.02734375-0.2734375l0-0.341796875q0-0.21875,0.02734375-0.30078125q-0.02734375-0.13671875-0.02734375-0.451171875l0-0.451171875q-0.02734375-0.1640625-0.02734375-0.505859375l0-0.505859375q0-0.041015625-0.013671875-0.150390625t-0.013671875-0.177734375q0-0.4921875,0.08203125-0.615234375q-0.0546875-0.1640625-0.0546875-0.615234375l0-0.177734375q0-0.109375,0.013671875-0.3486328125t0.013671875-0.3486328125q-0.013671875-0.08203125-0.0751953125-0.2666015625t-0.0751953125-0.2666015625q-0.041015625-0.0546875-0.0615234375-0.150390625t-0.0615234375-0.123046875t-0.150390625-0.02734375q-0.30078125,0-0.423828125-0.08203125q-0.1640625,0.0546875-0.30078125,0.0546875q-0.1640625,0-0.205078125-0.109375q-0.068359375-0.068359375-0.30078125-0.068359375q-0.109375,0-0.287109375,0.0205078125t-0.19140625,0.0205078125t-0.24609375-0.0068359375t-0.369140625-0.0546875t-0.19140625-0.1708984375q-0.08203125-0.0546875-0.08203125-0.478515625q0-0.546875,0.08203125-1.12109375q-0.19140625,0.095703125-0.314453125,0.095703125q-0.109375,0-0.109375-0.068359375t0.109375-0.21875q0.02734375-0.041015625,0.1162109375-0.123046875t0.13671875-0.1572265625t0.0615234375-0.1435546875q-0.02734375-0.08203125-0.02734375-0.2734375q0-0.13671875,0.02734375-0.19140625q0.095703125-0.232421875,0.4375-0.232421875q0.123046875,0,0.150390625,0.02734375l0.08203125,0q0.19140625,0,0.30078125,0.0546875q0.109375-0.0546875,0.232421875-0.0546875q0.08203125,0,0.13671875,0.02734375l0.109375,0l0.232421875,0q0.0546875,0,0.21875-0.013671875t0.21875-0.013671875l0.177734375,0q0.328125,0,0.4921875,0.0546875q0.013671875,0,0.0478515625,0.013671875t0.0478515625,0.013671875q0.0546875,0,0.1435546875-0.041015625t0.1572265625-0.041015625l0.08203125,0q0.0546875,0,0.1435546875-0.013671875t0.1435546875-0.013671875t0.109375,0.02734375q0.205078125,0,0.587890625-0.109375q0.013671875,0,0.0546875-0.013671875t0.0546875-0.013671875q0.08203125,0,0.13671875,0.0546875q0.068359375-0.0546875,0.205078125-0.109375l0.08203125,0q0.1640625,0,0.2734375,0.0546875q0.02734375,0,0.205078125,0.0478515625t0.19140625,0.0615234375l0.08203125,0l0.205078125,0q0.109375,0.02734375,0.21875,0.02734375q0.1640625,0,0.2734375-0.0546875l0.095703125,0q0.041015625,0,0.1435546875,0.013671875t0.1572265625,0.013671875q0.35546875,0,0.560546875,0.08203125q0.0546875-0.02734375,0.2734375-0.02734375q0.123046875-0.08203125,0.451171875-0.08203125q0.205078125,0,0.314453125,0.0546875q0.2734375,0.02734375,0.806640625,0.02734375q0.068359375,0.013671875,0.287109375-0.0205078125t0.30078125-0.0341796875q0.109375,0,0.13671875,0.02734375q0.41015625-0.13671875,0.423828125-0.13671875q0.109375,0,0.109375,0.109375q0.109375-0.0546875,0.232421875-0.0546875q0.19140625,0,0.30078125,0.109375q0.0546875,0,0.21875-0.013671875t0.205078125-0.013671875q0.13671875-0.13671875,0.478515625-0.13671875q0.013671875,0,0.041015625,0.013671875t0.041015625,0.013671875q0.328125,0.08203125,0.396484375,0.08203125q0.21875,0,0.3828125,0.109375q0.109375-0.0546875,0.232421875-0.0546875q0.13671875,0,0.24609375,0.0546875q0.08203125-0.02734375,0.341796875-0.02734375q0.1640625,0,0.21875,0.02734375q0.21875-0.0546875,0.341796875-0.0546875l0.08203125,0q0.041015625,0,0.1708984375,0.02734375t0.1845703125,0.02734375l0.0546875,0q0.109375-0.0546875,0.150390625-0.0546875t0.1435546875,0.0615234375t0.1572265625,0.0751953125q0.560546875,0.205078125,0.73828125,0.232421875q0.3828125,0.041015625,0.916015625,0.2734375q0.109375,0,0.2734375,0.0888671875t0.232421875,0.0888671875q0.08203125,0,0.13671875-0.02734375q0.02734375-0.02734375,0.08203125-0.02734375q0.095703125,0,0.123046875,0.0546875l0.0546875,0.109375l0,0.0546875q0,0.02734375,0.08203125,0.08203125q0.041015625,0.02734375,0.1640625,0.095703125t0.1640625,0.095703125q0.13671875,0.041015625,0.423828125,0.2255859375t0.341796875,0.2802734375q0.0546875,0.041015625,0.123046875,0.1162109375t0.150390625,0.19140625t0.109375,0.1435546875q0.068359375,0.109375,0.177734375,0.109375q0.041015625,0,0.177734375-0.08203125t0.259765625-0.08203125q0.177734375,0,0.177734375,0.109375q0,0.0546875-0.08203125,0.1572265625t-0.123046875,0.1298828125q-0.08203125,0.08203125-0.08203125,0.19140625q0,0.02734375,0.0546875,0.19140625q0.123046875,0.123046875,0.232421875,0.341796875q0.08203125,0.123046875,0.2666015625,0.3759765625t0.2666015625,0.3759765625q0.0546875-0.0546875,0.1640625-0.0546875t0.109375,0.13671875q0,0.150390625-0.08203125,0.232421875q0.013671875,0.02734375,0.13671875,0.21875q0.02734375,0.041015625,0.2119140625,0.13671875t0.1845703125,0.177734375q0,0.0546875-0.0546875,0.109375q0.109375-0.041015625,0.109375,0.0546875q0,0.041015625-0.0546875,0.1845703125t-0.0546875,0.1845703125l0,0.02734375q0.19140625,0.314453125,0.19140625,0.615234375q0.177734375,0.30078125,0.24609375,1.080078125q0.08203125,0.287109375,0.13671875,0.642578125t0.0615234375,0.5673828125t0.0205078125,0.6904296875t0.013671875,0.6015625q0.1640625-0.08203125,0.24609375-0.08203125q0.095703125,0,0.123046875,0.0546875z M41.0530859375,32.068359375l0.19140625-0.109375l-0.19140625,0.109375q0.177734375-0.123046875,0.5263671875-0.3623046875t0.5263671875-0.3623046875q-0.123046875,0.068359375-1.107421875,0.724609375l0.0546875,0z M42.8441015625,30.1953125q0-0.0546875,0.02734375-0.0546875q-0.533203125,0.41015625-4.142578125,3.076171875l0.08203125,0q0.095703125,0,0.21875-0.068359375t0.3076171875-0.2119140625t0.1982421875-0.1572265625q0.13671875-0.095703125,0.4169921875-0.2939453125t0.4169921875-0.2939453125q0.205078125-0.13671875,0.615234375-0.423828125t0.6015625-0.423828125q0.587890625-0.35546875,0.833984375-0.451171875q0.068359375-0.02734375,0.0888671875-0.1298828125t0.0751953125-0.1435546875q0-0.08203125,0.0478515625-0.1572265625t0.1162109375-0.150390625t0.095703125-0.1162109375z M38.3870703125,33.5859375q0.02734375-0.02734375,0.02734375-0.08203125l0-0.0546875l-0.109375,0.109375q0.02734375,0.02734375,0.08203125,0.02734375z M43.6507421875,28.85546875l-0.109375,0.08203125q0.02734375-0.02734375,0.109375-0.08203125q-0.041015625,0.123046875-0.751953125,0.478515625q-0.369140625,0.205078125-0.95703125,0.615234375q0.916015625-0.533203125,1.708984375-1.09375z M42.4476171875,29.306640625l0.1640625-0.123046875l-0.615234375,0.396484375q0.109375-0.0546875,0.451171875-0.2734375q0.123046875-0.08203125,0.341796875-0.232421875t0.396484375-0.2666015625t0.328125-0.2119140625q0.21875-0.109375,0.30078125-0.19140625q0.0546875-0.02734375,0.1162109375-0.1162109375t0.1162109375-0.1298828125q0.13671875-0.109375,0.21875-0.4306640625t0.08203125-0.6083984375l0-0.1640625q-2.091796875,1.244140625-4.525390625,2.625q-0.13671875,0.08203125-0.41015625,0.2392578125t-0.41015625,0.2392578125q-0.0546875,0.02734375-0.1025390625,0.1435546875t-0.1162109375,0.1572265625q-0.109375,0.08203125-0.369140625,0.150390625l-0.21875,0.21875q-0.068359375,0.068359375-0.1435546875,0.21875t-0.1435546875,0.205078125q-0.095703125,0.068359375-0.35546875,0.13671875q-0.013671875,0.041015625-0.0478515625,0.123046875t-0.0478515625,0.123046875q-0.21875,0.287109375-0.35546875,0.314453125q-0.02734375,0.02734375-0.109375,0.02734375q-0.02734375,0-0.0751953125-0.02734375t-0.0751953125-0.02734375q-0.0546875,0-0.08203125,0.02734375q-0.0546875,0.0546875-0.19140625,0.0546875l-0.369140625,0q-0.041015625,0.041015625-0.205078125,0.150390625t-0.205078125,0.19140625q-0.041015625,0.068359375-0.1298828125,0.205078125t-0.1298828125,0.205078125q-0.123046875,0.232421875-0.3759765625,0.642578125t-0.2939453125,0.478515625q0.35546875-0.109375,0.7724609375-0.3076171875t0.6904296875-0.3623046875t0.7587890625-0.4580078125t0.6630859375-0.4033203125t4.703125-2.939453125z M32.3441015625,33.72265625q0.369140625-0.1640625,0.7587890625-0.4169921875t0.8818359375-0.615234375t0.7109375-0.4990234375q-0.068359375-0.068359375-0.314453125-0.068359375l-0.328125,0q-0.0546875-0.02734375-0.205078125-0.02734375l-0.21875,0q-0.02734375,0-0.205078125-0.02734375t-0.2734375-0.02734375q-0.259765625,0-0.30078125,0.150390625l-0.232421875,0.697265625t-0.2734375,0.833984375z M28.0237890625,33.39453125l0.287109375-0.205078125l-0.314453125,0.232421875l0.02734375-0.02734375q0.697265625-0.4375,2.3515625-1.626953125q0.013671875-0.013671875,0.13671875-0.123046875t0.21875-0.1845703125t0.2119140625-0.1298828125t0.1982421875-0.041015625q0.02734375-0.0546875,0.02734375-0.1640625l0-0.150390625q-1.33984375,1.107421875-4.033203125,2.802734375q0.341796875-0.0546875,0.3828125-0.08203125q0.21875-0.109375,0.505859375-0.30078125z M27.1898046875,29.470703125l0,0.0546875q1.189453125-1.01171875,3.240234375-2.5703125q-1.17578125,0.669921875-2.064453125,1.23046875q-0.02734375,0.013671875-0.2666015625,0.1572265625t-0.3486328125,0.2255859375q-0.123046875,0.068359375-0.314453125,0.205078125q-0.1640625,0.041015625-0.1640625,0.19140625l0,0.0546875q-0.02734375,0.068359375-0.041015625,0.2255859375t-0.041015625,0.2255859375z M27.2718359375,27.009765625l0.21875-0.232421875q-0.21875,0.205078125-0.21875,0.232421875q0.6015625-0.6015625,1.681640625-1.380859375q0.916015625-0.697265625,1.44921875-1.06640625q0.02734375-0.013671875,0.3076171875-0.19140625t0.4306640625-0.3212890625t0.13671875-0.2666015625q-0.4375,0.24609375-0.8955078125,0.560546875t-1.025390625,0.724609375t-0.8544921875,0.615234375q-0.041015625,0.02734375-0.2734375,0.1982421875t-0.4580078125,0.2939453125t-0.3896484375,0.123046875q-0.08203125,0-0.109375-0.02734375q0,0.0546875-0.013671875,0.177734375t-0.013671875,0.19140625q0,0.0546875,0.013671875,0.1845703125t0.013671875,0.1845703125z M27.1898046875,25.41015625l0.1640625-0.109375l-0.1640625,0.109375q0.7109375-0.546875,1.4765625-1.06640625q-0.13671875,0.08203125-0.4306640625,0.2529296875t-0.4306640625,0.2529296875q-0.041015625,0.013671875-0.1845703125,0.08203125t-0.2255859375,0.109375t-0.1572265625,0.123046875t-0.0751953125,0.1640625q0,0.013671875,0.013671875,0.041015625t0.013671875,0.041015625z M30.1839453125,15.83984375l-0.0546875,0.02734375l0.0546875-0.02734375q-0.08203125,0.013671875-0.423828125,0.2734375q0.068359375-0.041015625,0.2119140625-0.13671875t0.2119140625-0.13671875z M40.2601171875,16.509765625q-0.30078125,0.150390625-0.8134765625,0.451171875t-0.7177734375,0.41015625q-0.13671875,0.08203125-0.4853515625,0.2939453125t-0.5537109375,0.3212890625q-0.02734375,0.013671875-0.13671875,0.0888671875t-0.2119140625,0.1298828125t-0.1572265625,0.041015625q0.150390625,0.109375,0.21875,0.109375q0.109375,0,0.232421875-0.08203125q0.13671875-0.08203125,0.4033203125-0.2529296875t0.4033203125-0.2529296875t1.203125-0.8203125q0.02734375-0.013671875,0.1845703125-0.1298828125t0.287109375-0.2119140625t0.1435546875-0.095703125z M41.7503515625,17.2890625l-0.287109375,0.13671875l0.287109375-0.13671875q-0.423828125,0.232421875-3.19921875,1.900390625q0.0546875,0.08203125,0.2255859375,0.2529296875t0.2255859375,0.2802734375q0.02734375-0.068359375,0.1298828125-0.1572265625t0.2529296875-0.19140625t0.177734375-0.1298828125q0.90234375-0.724609375,1.06640625-0.861328125z M42.5023046875,18.150390625l-0.1640625,0.123046875q0.02734375,0,0.1025390625-0.0546875t0.0615234375-0.068359375q-0.560546875,0.341796875-2.48828125,1.572265625q-0.0546875,0.02734375-0.21875,0.150390625t-0.30078125,0.19140625t-0.232421875,0.0546875q0.259765625,0.478515625,0.328125,0.833984375q1.4765625-1.107421875,2.296875-1.873046875q0.068359375-0.068359375,0.19140625-0.1845703125t0.232421875-0.2255859375t0.19140625-0.205078125q0.08203125-0.08203125,0.08203125-0.13671875q0-0.095703125-0.08203125-0.177734375z M39.9593359375,21.568359375l0,0.02734375l0-0.02734375l0-0.02734375q0-0.068359375,0.1025390625-0.1572265625t0.2666015625-0.19140625t0.3212890625-0.1845703125t0.3212890625-0.1708984375t0.19140625-0.1025390625q0.19140625-0.109375,0.546875-0.3486328125t0.546875-0.3486328125q-1.0390625,0.587890625-2.05078125,1.1484375q-0.0546875,0.041015625-0.1435546875,0.0546875t-0.150390625,0.013671875t-0.109375,0.02734375t-0.0478515625,0.095703125q0,0.013671875,0.013671875,0.0546875t0.013671875,0.0546875q0.02734375,0.068359375,0.1025390625,0.2529296875t0.123046875,0.341796875t0.0615234375,0.2802734375q0.24609375-0.19140625,1.025390625-0.7724609375t1.189453125-0.9091796875q-1.490234375,1.06640625-2.0234375,1.06640625q-0.21875,0-0.30078125-0.177734375z M44.6351171875,23.728515625q-0.02734375,0.02734375-0.02734375,0.0546875q0.02734375-0.02734375,0.02734375-0.0546875q-0.998046875,0.84765625-2.939453125,2.32421875q1.982421875-1.244140625,2.4609375-1.517578125l0.150390625-0.0751953125t0.21875-0.1162109375t0.109375-0.109375q0.02734375-0.0546875,0.02734375-0.1640625q0-0.0546875-0.013671875-0.1708984375t-0.013671875-0.1708984375z M40.0413671875,26.982421875l0.328125-0.259765625l-0.328125,0.259765625q1.203125-0.888671875,2.5703125-1.99609375q-1.39453125,0.943359375-2.091796875,1.203125q-0.2734375,0.109375-0.396484375,0.109375q-0.08203125,0.02734375-0.08203125,0.451171875l0,0.232421875z M35.9261328125,31.31640625l0.02734375,0l-0.02734375,0q0.314453125-0.123046875,0.328125-0.13671875q0.21875-0.095703125,0.451171875-0.287109375q0.0546875-0.02734375,0.205078125-0.0888671875t0.21875-0.1572265625q0.095703125-0.19140625,0.21875-0.314453125q0.21875-0.205078125,0.6083984375-0.51953125t0.4853515625-0.396484375t0.1845703125-0.21875t0.1298828125-0.24609375t0.1162109375-0.3076171875t0.1025390625-0.2666015625q0.08203125-0.423828125,0.1640625-0.533203125l0-0.02734375q0-0.095703125,0.068359375-0.2939453125t0.109375-0.2666015625l0-0.0546875q0-0.259765625,0.08203125-0.505859375q0.013671875-0.0546875,0.02734375-0.1982421875t0.02734375-0.1982421875q-0.02734375-0.08203125-0.02734375-0.2734375q0-0.205078125,0.08203125-0.779296875q-0.08203125-0.943359375-0.08203125-0.984375q0.109375-0.84765625,0.13671875-0.9296875q-0.013671875,0-0.0478515625,0.013671875t-0.0615234375,0.013671875q-0.21875,0-0.21875-0.109375q0-0.0546875,0.08203125-0.13671875q0.013671875-0.013671875,0.068359375-0.041015625t0.0888671875-0.0546875t0.0341796875-0.068359375q-0.0546875-0.2734375-0.0546875-0.478515625q-0.02734375-0.068359375-0.109375-0.3896484375t-0.150390625-0.4580078125q-0.02734375,0.013671875-0.2734375,0.177734375q-0.02734375,0.02734375-0.08203125,0.02734375q-0.13671875,0-0.13671875-0.13671875q0-0.095703125,0.0546875-0.123046875q0.02734375-0.02734375,0.0888671875-0.0615234375t0.1025390625-0.0546875t0.0751953125-0.068359375t0.0341796875-0.0888671875q0-0.08203125-0.02734375-0.109375q-0.0546875-0.08203125-0.1025390625-0.2119140625t-0.095703125-0.2939453125t-0.0751953125-0.232421875q-0.13671875-0.109375-0.314453125-0.46484375q-0.041015625-0.068359375-0.150390625-0.1708984375t-0.150390625-0.1708984375q-0.123046875-0.08203125-0.150390625-0.08203125q-0.0546875,0-0.109375,0.02734375q-0.02734375,0.02734375-0.08203125,0.02734375q-0.109375-0.041015625-0.109375-0.109375q0-0.08203125,0.08203125-0.1640625q-0.396484375-0.35546875-1.01171875-0.6015625q-0.109375-0.041015625-0.4716796875-0.2255859375t-0.5947265625-0.1845703125q-0.109375,0-0.1982421875-0.041015625t-0.1298828125-0.041015625q-0.02734375,0-0.19140625,0.0546875q-0.24609375,0.08203125-0.287109375,0.08203125q-0.08203125,0-0.13671875-0.0546875q-0.041015625-0.02734375-0.0615234375-0.095703125t-0.0478515625-0.08203125q-0.08203125,0.041015625-0.205078125,0.041015625q-0.19140625,0-0.2734375-0.041015625q-0.0546875,0-0.1640625,0.0615234375t-0.177734375,0.0615234375q-0.08203125-0.08203125-0.2734375-0.08203125l-0.02734375,0q-0.1640625,0.08203125-0.259765625,0.08203125q-0.3828125-0.0546875-0.587890625-0.0546875q-0.287109375,0-0.505859375,0.109375q-0.041015625,0.02734375-0.109375,0.0478515625t-0.095703125,0.0341796875t-0.068359375,0.0615234375t-0.0546875,0.1298828125q0.0546875,0.1640625,0.0546875,0.341796875q0,0.041015625-0.013671875,0.1162109375t-0.013671875,0.1025390625q0.02734375,0.02734375,0.02734375,0.13671875l0,0.123046875l0.02734375,0q0.13671875,0,0.13671875,0.13671875l0,0.02734375q0,0.0546875-0.0751953125,0.123046875t-0.0888671875,0.095703125q0.02734375,0.02734375,0.02734375,0.123046875q0,0.109375-0.02734375,0.13671875q0.02734375,0.109375,0.02734375,0.35546875q0,0.150390625-0.013671875,0.4169921875t-0.013671875,0.3759765625q0.0546875-0.02734375,0.19140625-0.02734375q0.205078125,0,0.205078125,0.109375q0,0.02734375-0.0546875,0.13671875q-0.041015625,0.08203125-0.177734375,0.1982421875t-0.1640625,0.1982421875q0,0.08203125-0.0546875,0.30078125q0,0.0546875,0.0615234375,0.13671875t0.0478515625,0.123046875q-0.013671875,0.0546875-0.068359375,0.1025390625t-0.068359375,0.0888671875l0,0.13671875q0.0546875,0.109375,0.0546875,0.451171875q0,0.02734375,0.0615234375,0.041015625t0.13671875,0.0478515625t0.1025390625,0.0751953125q0.02734375,0.02734375,0.02734375,0.095703125q0,0.0546875-0.0478515625,0.1162109375t-0.1298828125,0.1298828125t-0.095703125,0.08203125l0,0.19140625q0,0.259765625-0.08203125,0.751953125t-0.08203125,0.73828125l0,0.109375q0.109375,0.2734375,0.109375,0.642578125q0,0.041015625-0.013671875,0.109375l-0.013671875,0.068359375q-0.109375,0.65625-0.109375,0.669921875q0,0.02734375,0.013671875,0.068359375t0.013671875,0.068359375q0.013671875,0,0.041015625-0.013671875t0.041015625-0.013671875q0.19140625,0,0.19140625,0.21875q0,0.13671875-0.08203125,0.259765625q-0.0546875,0.0546875-0.0546875,0.1640625q0,0.0546875,0.02734375,0.1572265625t0.02734375,0.1572265625t-0.02734375,0.109375q0.0546875,0.21875,0.0546875,0.478515625q0,0.21875-0.0546875,0.4921875q-0.013671875,0.041015625-0.0205078125,0.232421875t-0.0341796875,0.2734375q0,0.068359375,0.013671875,0.19140625t0.013671875,0.177734375q0,0.1640625-0.08203125,0.2734375q0,0.02734375,0.013671875,0.109375t0.013671875,0.123046875q0,0.123046875-0.02734375,0.3759765625t-0.02734375,0.3759765625l0,0.109375q0.109375-0.02734375,0.505859375-0.02734375q0.24609375-0.08203125,0.533203125-0.08203125q0.205078125,0,0.587890625,0.0546875l0.19140625,0l0.396484375,0q0.0546875,0,0.287109375,0.041015625t0.3828125,0.041015625q0.1640625,0,0.24609375-0.02734375q0.095703125-0.02734375,0.560546875-0.109375q0.0546875-0.02734375,0.13671875-0.02734375q0.041015625,0,0.1162109375,0.02734375t0.1162109375,0.02734375q0.013671875,0,0.041015625-0.013671875t0.041015625-0.013671875z M27.1624609375,29.921875l0.13671875-0.08203125l-0.13671875,0.08203125q0.4921875-0.30078125,1.4560546875-0.943359375t1.4560546875-0.943359375q0.833984375-0.505859375,0.943359375-0.560546875q0.150390625-0.068359375,0.150390625-0.3828125q0-0.0546875-0.013671875-0.1845703125t-0.013671875-0.1845703125q-0.3828125,0.30078125-1.1552734375,0.9091796875t-1.1416015625,0.9091796875q-0.314453125,0.205078125-1.0185546875,0.751953125t-0.6630859375,0.62890625z M27.1351171875,20.59765625l0.109375-0.0546875l-0.109375,0.0546875q0.751953125-0.451171875,0.806640625-0.478515625q-0.068359375,0.02734375-0.30078125,0.0478515625t-0.3828125,0.08203125t-0.150390625,0.1982421875q0,0.095703125,0.02734375,0.150390625z M31.2230078125,18.4921875l-0.451171875,0.24609375l0.451171875-0.24609375q-1.216796875,0.68359375-2.37890625,1.39453125q-0.259765625,0.13671875-0.7177734375,0.423828125t-0.6083984375,0.369140625q-0.02734375,0.013671875-0.109375,0.0615234375t-0.123046875,0.0751953125t-0.08203125,0.068359375t-0.041015625,0.095703125l0,0.02734375q0,0.041015625-0.013671875,0.1708984375t-0.013671875,0.1708984375q1.88671875-1.462890625,2.830078125-1.955078125q0.041015625-0.02734375,0.46484375-0.1845703125t0.62890625-0.3212890625t0.1640625-0.396484375z M34.9964453125,16.359375q0.177734375-0.095703125,0.505859375-0.2802734375t0.505859375-0.2802734375q-0.109375-0.041015625-0.30078125,0.0615234375t-0.4306640625,0.287109375t-0.2802734375,0.2119140625z M27.1077734375,22.07421875l0.02734375,0l-0.02734375,0q0.41015625-0.314453125,1.2236328125-0.84765625t1.1279296875-0.751953125q0.095703125-0.068359375,0.4853515625-0.30078125t0.6220703125-0.423828125t0.341796875-0.41015625q-0.0546875-0.02734375-0.2666015625,0.1162109375t-0.4375,0.3212890625t-0.2666015625,0.205078125q-0.19140625,0.123046875-1.462890625,0.916015625q-0.888671875,0.51953125-1.1484375,0.669921875q-0.068359375,0.041015625-0.109375,0.068359375t-0.0615234375,0.08203125t-0.02734375,0.08203125t-0.013671875,0.123046875t-0.0068359375,0.150390625z M27.1624609375,22.8671875q0,0.013671875,0.013671875,0.041015625t0.013671875,0.041015625q1.517578125-1.0390625,2.994140625-2.1328125q-1.12109375,0.7109375-2.32421875,1.3671875q-0.123046875,0.08203125-0.533203125,0.287109375q-0.1640625,0.068359375-0.1640625,0.1640625l0,0.232421875z M27.9417578125,21.828125l0.423828125-0.232421875q-0.314453125,0.150390625-0.423828125,0.232421875q0.65625-0.35546875,2.556640625-1.517578125q0.0546875-0.041015625,0.30078125-0.1640625t0.3623046875-0.24609375t0.1162109375-0.287109375l0-0.2734375q0-0.205078125-0.02734375-0.287109375q-0.0546875,0.0546875-0.0546875,0.13671875q0,0.150390625-0.0546875,0.259765625q-0.13671875,0.24609375-0.451171875,0.505859375q-0.3828125,0.314453125-0.8134765625,0.6083984375t-1.080078125,0.7109375t-0.8544921875,0.5537109375z M31.2503515625,20.337890625l-0.109375,0.08203125q0.109375-0.0546875,0.109375-0.08203125q-0.259765625,0.232421875-0.79296875,0.587890625q0.041015625-0.02734375,0.2802734375-0.1435546875t0.369140625-0.2255859375t0.1435546875-0.21875z M31.2503515625,21.0625q-0.9296875,0.73828125-2.48828125,1.94140625q0.970703125-0.6015625,1.927734375-1.1484375q0.095703125-0.0546875,0.2939453125-0.1708984375t0.2939453125-0.1708984375l0-0.21875q0-0.177734375-0.02734375-0.232421875z M31.1683203125,22.580078125q-0.19140625,0.109375-0.57421875,0.3349609375t-0.57421875,0.3349609375q0.1640625-0.08203125,0.642578125-0.35546875l0.1640625-0.08203125t0.2392578125-0.1298828125t0.1025390625-0.1025390625z M30.1566015625,23.646484375l0.369140625-0.19140625q-0.08203125,0-0.369140625,0.19140625q0.451171875-0.2734375,0.888671875-0.423828125q0.177734375-0.068359375,0.177734375-0.1640625l0-0.109375q-0.21875,0.123046875-0.5947265625,0.3759765625t-0.4716796875,0.3212890625z M30.4573828125,23.783203125q-0.068359375,0.041015625-0.35546875,0.2119140625t-0.478515625,0.2939453125q0.13671875-0.08203125,0.4169921875-0.2529296875t0.4169921875-0.2529296875z M44.4026953125,26.3671875q-0.013671875,0.0546875-0.19140625,0.150390625t-0.4033203125,0.205078125t-0.2666015625,0.13671875q-0.2734375,0.150390625-0.765625,0.4443359375t-0.546875,0.3212890625q-0.24609375,0.150390625-0.7451171875,0.4443359375t-0.8818359375,0.533203125t-0.724609375,0.4716796875q0.478515625-0.2734375,1.408203125-0.833984375t1.408203125-0.84765625q0.19140625-0.095703125,0.546875-0.3076171875t0.546875-0.3076171875q0.02734375-0.013671875,0.150390625-0.068359375t0.1982421875-0.095703125t0.1640625-0.109375t0.1025390625-0.13671875z M41.3265234375,27.59765625l0.02734375-0.02734375q0-0.013671875-0.0546875,0.0205078125t-0.109375,0.0751953125l-0.0546875,0.041015625q0.0546875-0.02734375,0.19140625-0.109375q0.109375-0.068359375,0.3212890625-0.2119140625t0.3212890625-0.2119140625q-1.599609375,0.998046875-2.1875,1.421875q0.24609375-0.177734375,0.765625-0.4990234375t0.779296875-0.4990234375z M40.1507421875,28.0078125q0.013671875,0.013671875-0.0546875,0.0546875l0.0546875-0.0546875l-0.123046875,0.0546875q-0.123046875,0.068359375-0.2255859375,0.13671875t-0.1025390625,0.123046875q0.068359375-0.0546875,0.2255859375-0.1572265625t0.2255859375-0.1572265625z M39.9319921875,27.447265625q0.02734375-0.02734375,0.02734375-0.0546875q-0.02734375,0.02734375-0.02734375,0.0546875q0.21875-0.1640625,0.2734375-0.21875q-0.02734375,0.02734375-0.109375,0.02734375t-0.109375-0.02734375q-0.0546875,0.109375-0.0546875,0.21875z M40.1233984375,25.68359375l0-0.02734375l0,0.02734375l0,0.095703125q2.40625-1.96875,3.52734375-3.03515625q-0.3828125,0.21875-1.12109375,0.6494140625t-1.12109375,0.6494140625q-0.205078125,0.109375-0.57421875,0.3349609375t-0.57421875,0.3349609375q-0.13671875,0.068359375-0.13671875,0.30078125q0,0.068359375,0.013671875,0.2255859375t0.013671875,0.2255859375q0,0.1640625-0.02734375,0.21875z M40.1233984375,24.015625l0-0.041015625l0,0.041015625q0.013671875-0.041015625,0.1025390625-0.1162109375t0.205078125-0.1640625t0.1435546875-0.1162109375q0.328125-0.287109375,0.642578125-0.478515625q-0.08203125,0.041015625-1.01171875,0.560546875q-0.041015625,0.02734375-0.0546875,0.0751953125t-0.013671875,0.123046875t-0.013671875,0.1162109375z M40.1780859375,23.27734375l0.0546875-0.0546875l-0.0546875,0.0546875q0.150390625-0.150390625,0.4716796875-0.4033203125t0.4306640625-0.3486328125q-0.068359375,0.0546875-0.314453125,0.1640625t-0.4169921875,0.2392578125t-0.1708984375,0.2666015625l0,0.08203125z M38.2503515625,18.916015625l0.2734375-0.287109375q-0.2734375,0.232421875-0.2734375,0.287109375q0.943359375-0.90234375,1.955078125-1.791015625q-0.287109375,0.1640625-1.1416015625,0.642578125t-1.3193359375,0.751953125q0.02734375,0.02734375,0.2255859375,0.1572265625t0.2802734375,0.2392578125z M37.1019140625,18.150390625l-0.02734375-0.02734375l0.02734375,0.02734375q0-0.013671875-0.013671875-0.041015625t-0.013671875-0.041015625q0-0.123046875,0.150390625-0.341796875t0.328125-0.41015625t0.3828125-0.396484375t0.232421875-0.24609375q-0.314453125,0.177734375-0.943359375,0.5400390625t-0.943359375,0.5537109375q0.068359375,0.068359375,0.423828125,0.19140625t0.396484375,0.19140625z M35.4202734375,17.5078125l0.1640625-0.109375q-0.1640625,0.08203125-0.1640625,0.109375q1.189453125-0.90234375,1.626953125-1.3125q-1.2578125,0.7109375-2.10546875,1.23046875q0.232421875,0,0.478515625,0.08203125z M33.0687109375,16.646484375l-0.24609375,0.13671875q0.0546875-0.02734375,0.24609375-0.13671875q0.109375-0.068359375,0.369140625-0.259765625q-1.3671875,0.724609375-2.0712890625,1.107421875t-1.818359375,1.080078125t-1.9345703125,1.353515625q0.177734375-0.02734375,0.3759765625-0.1025390625t0.3349609375-0.13671875t0.35546875-0.177734375t0.328125-0.1708984375q1.408203125-0.84765625,1.818359375-1.12109375q0.02734375-0.013671875,0.177734375-0.150390625t0.21875-0.1640625l0-0.0546875q0-0.123046875,0.109375-0.1640625q0.19140625-0.19140625,0.341796875-0.232421875q0.21875-0.0546875,0.4580078125-0.19140625t0.51953125-0.3349609375t0.4169921875-0.2802734375z M27.2991796875,19.53125l0.0546875-0.0546875l-0.0546875,0.0546875q0.205078125-0.205078125,0.4306640625-0.4033203125t0.4990234375-0.41015625t0.4580078125-0.35546875t0.51953125-0.3759765625t0.4716796875-0.328125t0.5263671875-0.35546875t0.4853515625-0.328125q-0.9296875,0.505859375-2.296875,1.326171875q-0.30078125,0.150390625-1.12109375,0.642578125q-0.1640625,0.08203125-0.1640625,0.35546875q0,0.177734375,0.0546875,0.396484375q0.02734375-0.0546875,0.13671875-0.1640625z M27.1351171875,18.6015625l0.0546875-0.0546875l-0.0546875,0.0546875q0.232421875-0.232421875,0.5126953125-0.4990234375t0.478515625-0.4306640625t0.560546875-0.46484375t0.5126953125-0.423828125q-0.109375,0.068359375-0.669921875,0.4443359375t-0.9501953125,0.57421875t-0.7587890625,0.2666015625q0.02734375,0.068359375,0.095703125,0.287109375t0.13671875,0.328125z M24.1956640625,17.09765625q0.51953125-0.8203125,0.806640625-1.298828125q-0.0546875,0.041015625-0.259765625,0.1435546875t-0.3486328125,0.205078125t-0.1708984375,0.2119140625q0,0.02734375,0.013671875,0.123046875t0.013671875,0.1640625q0,0.287109375-0.0546875,0.451171875z M27.1624609375,23.865234375l0.02734375,0l0-0.02734375l-0.02734375,0.02734375q0-0.041015625,0.8681640625-0.6767578125t1.0595703125-0.7724609375q1.763671875-1.39453125,1.900390625-1.490234375q-0.533203125,0.328125-1.4423828125,0.998046875t-1.2919921875,0.916015625q-0.669921875,0.41015625-0.84765625,0.46484375q-0.232421875,0.109375-0.24609375,0.150390625q0.02734375,0.0546875,0.02734375,0.21875q0,0.13671875-0.02734375,0.19140625z M31.2230078125,21.85546875l-0.451171875,0.24609375l0.451171875-0.24609375q-1.3671875,0.765625-2.37890625,1.421875q-0.259765625,0.13671875-0.7314453125,0.4375t-0.5947265625,0.3828125q-0.02734375,0.013671875-0.1025390625,0.0615234375t-0.1025390625,0.0615234375t-0.08203125,0.0615234375t-0.068359375,0.0751953125t-0.0341796875,0.0751953125t-0.0205078125,0.1025390625l0,0.068359375q1.298828125-0.806640625,2.32421875-1.462890625q0.177734375-0.123046875,0.5400390625-0.3623046875t0.5537109375-0.3623046875q0.041015625-0.02734375,0.2392578125-0.1435546875t0.314453125-0.21875t0.1435546875-0.1982421875z M29.2542578125,24.822265625l-0.41015625,0.24609375q0.3828125-0.24609375,0.41015625-0.24609375q-1.134765625,0.68359375-1.5859375,1.06640625q0.30078125-0.177734375,1.5859375-1.06640625z M28.2288671875,26.53125l-0.123046875,0.08203125q-0.02734375,0,0.314453125-0.24609375q-0.02734375,0.02734375-0.19140625,0.1640625q-0.587890625,0.46484375-0.875,0.779296875q2.337890625-1.33984375,2.515625-1.44921875q0.19140625-0.109375,0.5810546875-0.3349609375t0.5947265625-0.3349609375q0.08203125-0.0546875,0.13671875-0.232421875t0.08203125-0.423828125t0.041015625-0.30078125q-0.123046875,0.095703125-1.3056640625,0.95703125t-1.7705078125,1.33984375z M31.1409765625,25.4921875q-0.4921875,0.423828125-1.4833984375,1.244140625t-1.4833984375,1.244140625q1.818359375-1.134765625,2.65234375-1.53125q0.02734375-0.013671875,0.1025390625-0.0478515625t0.123046875-0.0546875t0.095703125-0.068359375t0.0478515625-0.0888671875l0-0.08203125q0-0.08203125-0.02734375-0.2666015625t-0.02734375-0.2666015625l0-0.08203125z M28.7620703125,29.333984375l-0.123046875,0.0546875q0,0.013671875,0.2392578125-0.123046875t0.4716796875-0.2734375l0.24609375-0.13671875q-0.21875,0.109375-0.833984375,0.478515625q-1.052734375,0.65625-1.17578125,0.724609375q-0.0546875,0.041015625-0.177734375,0.095703125t-0.150390625,0.0888671875t-0.013671875,0.1162109375l0,0.150390625q0.4375-0.30078125,1.2509765625-0.79296875t1.1279296875-0.697265625q0.205078125-0.123046875,0.587890625-0.3759765625t0.587890625-0.3759765625q0.13671875-0.095703125,0.451171875-0.341796875q0-0.041015625-0.013671875-0.123046875t-0.013671875-0.123046875q-0.08203125,0.0546875-0.21875,0.21875t-0.232421875,0.232421875q-0.287109375,0.205078125-0.615234375,0.4033203125t-0.7587890625,0.4375t-0.6357421875,0.3623046875z M31.2503515625,28.486328125l0-0.02734375l0,0.02734375q0.0546875-0.02734375,0.0546875-0.13671875l0-0.109375q-0.0546875,0.041015625-0.1708984375,0.109375t-0.1708984375,0.109375q0.109375-0.0546875,0.177734375-0.0546875t0.109375,0.08203125z M29.7327734375,32.6015625l-0.1640625,0.13671875q-0.02734375,0,0.341796875-0.2734375q-0.041015625,0.02734375-0.177734375,0.13671875q-0.79296875,0.62890625-1.17578125,1.01171875q0.287109375-0.1640625,0.861328125-0.505859375t0.875-0.505859375q0.150390625-0.08203125,0.4443359375-0.2529296875t0.4580078125-0.2529296875q0.02734375-0.02734375,0.02734375-0.109375q0-0.041015625-0.02734375-0.177734375t-0.02734375-0.205078125l0-0.068359375q-0.724609375,0.51953125-1.435546875,1.06640625z M31.7835546875,32.21875q-0.177734375,0.13671875-0.177734375,0.1640625q0.013671875-0.013671875,0.0341796875-0.02734375l0.0615234375-0.041015625t0.068359375-0.0546875t0.013671875-0.041015625q-0.21875,0.1640625-0.6357421875,0.4990234375t-0.6220703125,0.4990234375q0.423828125-0.2734375,1.900390625-1.12109375q-0.02734375-0.02734375-0.08203125-0.02734375q-0.068359375,0-0.232421875,0.0888671875t-0.24609375,0.0888671875q-0.013671875,0-0.041015625-0.013671875t-0.041015625-0.013671875z M44.5530859375,25.62890625q-0.013671875,0.0546875-0.2119140625,0.1640625t-0.4443359375,0.232421875t-0.30078125,0.1640625q-0.232421875,0.123046875-0.642578125,0.3759765625t-0.478515625,0.2939453125q1.189453125-0.697265625,1.681640625-0.861328125q0.1640625-0.0546875,0.2734375-0.0546875q0.123046875-0.041015625,0.123046875-0.13671875l0-0.177734375z M39.8226171875,27.8984375q0.451171875-0.24609375,1.33984375-0.7587890625t1.33984375-0.7724609375q0.21875-0.13671875,0.7861328125-0.46484375t0.8681640625-0.51953125q0.041015625-0.02734375,0.1162109375-0.0615234375t0.109375-0.0478515625t0.08203125-0.041015625t0.0751953125-0.0478515625t0.0546875-0.0546875t0.041015625-0.068359375t0.0205078125-0.08203125t0.0068359375-0.1025390625q0-0.13671875-0.02734375-0.21875q-1.3125,0.8203125-2.966796875,1.900390625q-0.21875,0.13671875-0.615234375,0.4169921875t-0.615234375,0.4169921875q-0.041015625,0.02734375-0.1982421875,0.13671875t-0.2734375,0.205078125t-0.1435546875,0.1640625z M44.5804296875,23.11328125q-0.095703125-0.21875-0.177734375-1.01171875q-0.0546875-0.123046875-0.1025390625-0.3896484375t-0.0615234375-0.3076171875q-1.203125,0.73828125-2.5703125,1.708984375q-0.84765625,0.62890625-1.203125,0.984375q-0.369140625,0.24609375-0.369140625,0.35546875l0,0.02734375q0.615234375-0.35546875,1.859375-1.06640625t1.859375-1.080078125q0.02734375-0.013671875,0.177734375-0.109375t0.21875-0.095703125q0.095703125,0,0.13671875,0.08203125q0.109375,0.24609375-0.642578125,0.84765625q-0.998046875,0.943359375-3.4453125,2.939453125q0.724609375-0.232421875,1.9140625-1.0390625q0.478515625-0.30078125,1.736328125-1.1484375q0.08203125-0.068359375,0.615234375-0.451171875q0.08203125-0.041015625,0.08203125-0.08203125q0-0.02734375-0.013671875-0.0751953125t-0.013671875-0.0888671875z M44.0472265625,20.76171875q0,0.013671875-0.68359375,0.505859375t-1.4423828125,1.025390625t-0.8681640625,0.62890625q0.697265625-0.423828125,2.146484375-1.271484375q0.13671875-0.08203125,0.41015625-0.232421875t0.41015625-0.232421875q0.109375-0.068359375,0.109375-0.150390625q0-0.041015625-0.0341796875-0.13671875t-0.0478515625-0.13671875z M42.2835546875,21.130859375l0.21875-0.177734375l-0.35546875,0.259765625q0.0546875-0.02734375,0.13671875-0.08203125q0.9296875-0.68359375,1.17578125-0.84765625q0.0546875-0.041015625,0.13671875-0.08203125t0.123046875-0.0751953125t0.041015625-0.0888671875q0-0.068359375-0.08203125-0.150390625q-0.875,0.751953125-2.802734375,2.21484375q0.615234375-0.41015625,1.408203125-0.970703125z M43.3499609375,19.3671875q0-0.013671875-0.013671875,0.02734375q-0.0546875,0.109375-0.08203125,0.13671875q-0.041015625,0.0546875-0.095703125,0.109375t-0.123046875,0.1162109375t-0.109375,0.1025390625q-0.57421875,0.46484375-2.2421875,1.462890625q0.533203125-0.24609375,1.544921875-0.9296875q0.13671875-0.095703125,0.51953125-0.369140625t0.6015625-0.41015625q0.08203125-0.08203125,0.08203125-0.109375q0-0.013671875-0.08203125-0.13671875z M42.7894140625,18.546875q0.013671875,0.041015625-0.3623046875,0.4033203125t-0.4580078125,0.4169921875q-0.875,0.765625-1.3671875,1.1484375q0.232421875-0.123046875,0.68359375-0.396484375t0.68359375-0.396484375q0.095703125-0.0546875,0.3212890625-0.2119140625t0.423828125-0.2529296875t0.3759765625-0.095703125q0.02734375,0,0.068359375,0.013671875t0.068359375,0.013671875q-0.068359375-0.109375-0.21875-0.3212890625t-0.21875-0.3212890625z M42.2288671875,17.794921875q-0.0546875-0.041015625-0.1435546875-0.1572265625t-0.1435546875-0.1572265625q-0.46484375,0.533203125-1.845703125,1.681640625q0.123046875-0.068359375,0.62890625-0.3828125t1.01171875-0.6357421875t0.4921875-0.3486328125z M41.3265234375,17.015625q-0.0546875-0.013671875-0.1708984375-0.109375t-0.1982421875-0.095703125q-0.0546875,0-0.13671875,0.08203125q-0.177734375,0.177734375-0.560546875,0.505859375q-0.875,0.8203125-1.3671875,1.2578125q0.13671875-0.08203125,1.1005859375-0.65625t1.4970703125-0.875q-0.109375-0.0546875-0.1640625-0.109375z M38.9476171875,16.0859375q0.041015625,0-0.24609375,0.3623046875t-0.369140625,0.4443359375q-0.109375,0.123046875-0.3349609375,0.396484375t-0.3349609375,0.396484375q0.970703125-0.546875,2.26953125-1.326171875q-0.1640625-0.02734375-0.4921875-0.1435546875t-0.4921875-0.1298828125z M38.4417578125,15.94921875l-0.24609375,0q-0.451171875,0-0.533203125-0.08203125q-0.02734375,0.109375-0.1162109375,0.2255859375t-0.1708984375,0.19140625t-0.2255859375,0.1845703125t-0.1845703125,0.150390625q-0.150390625,0.150390625-1.23046875,1.01171875q0.0546875,0.02734375,0.205078125-0.0478515625t0.287109375-0.1708984375t0.3076171875-0.21875t0.1982421875-0.150390625q0.875-0.62890625,1.01171875-0.7109375q0-0.013671875,0.1298828125-0.1025390625t0.314453125-0.1708984375t0.2802734375-0.08203125q0.08203125,0,0.08203125,0.08203125q0,0.0546875-0.02734375,0.08203125q0.041015625-0.013671875,0.1162109375-0.0546875t0.1162109375-0.0546875q-0.2734375-0.068359375-0.314453125-0.08203125z M34.0804296875,15.744140625l-0.341796875,0.177734375q0.095703125-0.041015625,0.341796875-0.177734375q-0.3828125,0.095703125-0.642578125,0.095703125l-0.150390625,0q-0.0546875,0-0.177734375-0.0205078125t-0.177734375-0.0205078125l-0.08203125,0q-1.75,1.189453125-2.078125,1.435546875q-1.99609375,1.408203125-2.884765625,2.1328125q0.90234375-0.65625,2.05078125-1.3466796875t1.96875-1.134765625t2.173828125-1.1416015625z M31.3323828125,15.83984375l-0.21875,0q-0.341796875,0-0.451171875,0.08203125q-0.1640625,0.13671875-0.478515625,0.4033203125t-0.478515625,0.4033203125q-1.203125,0.984375-1.845703125,1.572265625q2.54296875-1.490234375,4.251953125-2.4609375q-0.068359375-0.068359375-0.21875-0.068359375q-0.068359375,0-0.232421875,0.0341796875t-0.24609375,0.0341796875l-0.08203125,0z M25.6995703125,15.771484375l-0.02734375,0.02734375l0.02734375-0.02734375q-0.068359375,0.068359375-0.13671875,0.068359375q-0.02734375,0-0.0888671875-0.0205078125t-0.0751953125-0.0205078125q-0.041015625,0-0.109375,0.068359375q-0.041015625,0.068359375-0.1298828125,0.205078125t-0.1298828125,0.205078125q-0.08203125,0.123046875-0.2529296875,0.396484375t-0.2529296875,0.396484375q0.806640625-0.451171875,2.10546875-1.23046875l-0.08203125,0q-0.041015625,0-0.1435546875,0.013671875t-0.1435546875,0.013671875q-0.08203125,0-0.1640625-0.0478515625t-0.109375-0.0478515625l-0.0546875,0l-0.232421875,0z M27.3812109375,25.779296875l-0.02734375,0.02734375l0.02734375-0.02734375q-0.109375,0-0.109375,0.109375l0,0.02734375q0.02734375-0.0546875,0.109375-0.13671875z M27.2991796875,28.240234375l0,0.109375q2.255859375-1.873046875,2.720703125-2.2421875q-0.533203125,0.287109375-1.736328125,0.984375q-0.1640625,0.08203125-0.451171875,0.2529296875t-0.451171875,0.2529296875q-0.109375,0.068359375-0.109375,0.21875q0,0.0546875,0.013671875,0.1708984375t0.013671875,0.1708984375l0,0.08203125z M26.2601171875,32.068359375l0,0.0546875l0-0.0546875q-0.013671875,0.123046875-0.13671875,0.2119140625t-0.13671875,0.1025390625q-0.095703125,0.1640625-0.287109375,0.35546875q-0.396484375,0.505859375-0.751953125,0.90234375q3.158203125-2.21484375,4.89453125-3.158203125q0.861328125-0.478515625,1.244140625-0.615234375q0.123046875-0.041015625,0.1640625-0.2255859375t0.041015625-0.4580078125t0.013671875-0.35546875q-2.2421875,1.44921875-3.41796875,2.119140625q-0.8203125,0.41015625-0.861328125,0.423828125q0,0.41015625-0.259765625,0.587890625q-0.109375,0.068359375-0.2802734375,0.08203125t-0.2255859375,0.02734375z M24.3323828125,33.88671875q0.095703125-0.013671875,0.2529296875-0.177734375t0.341796875-0.4169921875t0.2119140625-0.2939453125q0.287109375-0.328125,0.642578125-0.779296875q-0.02734375-0.041015625-0.1708984375,0.0205078125t-0.3349609375,0.1845703125t-0.369140625,0.24609375t-0.3349609375,0.232421875t-0.1845703125,0.123046875q-0.19140625,0.109375-0.19140625,0.587890625q0,0.0546875,0.013671875,0.1640625t0.013671875,0.150390625q0.041015625-0.041015625,0.109375-0.041015625z M24.7562109375,32.2734375l-0.08203125,0.0546875q0-0.02734375,0.08203125-0.0546875l-0.0546875,0q-0.02734375,0-0.123046875,0.013671875t-0.13671875,0.013671875l-0.0546875,0q-0.1640625,0-0.1640625,0.13671875l0,0.1640625q0.24609375-0.1640625,0.533203125-0.328125z M26.0413671875,33.8046875l0.02734375,0l-0.02734375-0.02734375l-0.02734375,0q0.02734375,0,0.02734375,0.02734375q0.0546875-0.02734375,0.1640625-0.02734375q0.0546875,0,0.177734375,0.013671875t0.1640625,0.013671875q0.08203125,0.013671875,0.2119140625-0.0615234375t0.2939453125-0.1982421875t0.21875-0.150390625q0.287109375-0.205078125,0.8955078125-0.5947265625t0.8955078125-0.5810546875q0.1640625-0.123046875,0.7724609375-0.5673828125t0.9365234375-0.7041015625q0.369140625-0.287109375,0.396484375-0.3828125l0-0.451171875q-0.806640625,0.30078125-2.16015625,1.1484375q-1.708984375,1.025390625-3.896484375,2.59765625q0.095703125,0.013671875,0.232421875-0.0615234375t0.19140625-0.0751953125q0.013671875,0,0.041015625,0.013671875t0.041015625,0.013671875l0.0546875,0q0.041015625,0,0.109375-0.013671875t0.095703125-0.013671875q0.08203125,0,0.1640625,0.08203125z M27.9691015625,33.859375q0.0546875,0,0.0888671875-0.041015625t0.0751953125-0.109375t0.068359375-0.095703125q-0.068359375,0.041015625-0.2119140625,0.123046875t-0.2119140625,0.123046875l0.13671875,0l0.0546875,0z M28.9261328125,33.88671875l0.02734375-0.02734375l-0.02734375,0.02734375q0.0546875-0.0546875,0.19140625-0.0546875l0.109375,0q0.095703125,0,0.123046875-0.02734375q0.013671875-0.013671875,0.177734375-0.150390625t0.259765625-0.205078125q0.095703125-0.08203125,0.4580078125-0.3828125t0.5810546875-0.46484375q-0.396484375,0.21875-1.1689453125,0.669921875t-1.1552734375,0.68359375q0.02734375,0.02734375,0.08203125,0.02734375q0.041015625,0,0.150390625-0.0478515625t0.1640625-0.0478515625l0.02734375,0z M31.9202734375,33.75q0.13671875-0.041015625,0.2529296875-0.287109375t0.21875-0.642578125t0.1162109375-0.4375q-1.61328125,0.90234375-2.5703125,1.4765625l0.0546875,0q0.0546875,0,0.177734375-0.0546875t0.177734375-0.0546875l0.369140625,0l0.1640625,0q0.0546875,0,0.13671875,0.041015625t0.123046875,0.041015625t0.1162109375-0.02734375t0.1298828125-0.02734375q0.08203125,0.013671875,0.2255859375-0.0205078125t0.1982421875-0.0341796875q0.08203125,0,0.109375,0.02734375z M33.9573828125,33.927734375q0.02734375,0,0.109375-0.0205078125t0.123046875-0.0205078125l0.0546875,0q0.068359375-0.02734375,0.1435546875-0.0341796875t0.1025390625-0.041015625t0.095703125-0.1435546875q0.4921875-0.68359375,0.916015625-1.517578125l-0.0546875,0q-0.109375,0-0.1640625-0.02734375q-0.013671875,0.013671875-0.0546875,0.0341796875t-0.068359375,0.041015625t-0.0546875,0.0205078125q-0.13671875,0.109375-0.41015625,0.2734375q-0.13671875,0.095703125-0.423828125,0.2939453125t-0.423828125,0.2939453125q-0.833984375,0.57421875-1.23046875,0.779296875q0.13671875,0.068359375,0.232421875,0.068359375q0.08203125,0,0.232421875-0.0341796875t0.205078125-0.0341796875q0.109375,0.013671875,0.3349609375,0.0341796875t0.3349609375,0.0341796875z M36.6233984375,33.77734375l-0.02734375,0l0.02734375,0l0.08203125,0q0.109375,0,0.314453125-0.02734375t0.30078125-0.02734375q0.24609375,0.02734375,0.642578125-0.2734375q0.21875-0.1640625,0.615234375-0.451171875t0.7314453125-0.5400390625t0.6220703125-0.4716796875q1.640625-1.162109375,3.240234375-2.4609375q-0.533203125,0.30078125-1.5791015625,0.95703125t-1.5791015625,0.970703125q-1.06640625,0.62890625-4.197265625,2.37890625l0.13671875,0q0.095703125,0,0.2939453125-0.02734375t0.2939453125-0.02734375l0.08203125,0z M40.1233984375,33.859375l0.08203125,0l-0.08203125,0q0.232421875,0,0.642578125-0.41015625q-0.109375,0.109375-0.3349609375,0.259765625t-0.3076171875,0.150390625z"/><path fill="#" d=""/></svg>
